<?xml version="1.0" encoding="UTF-8"?>
<svg version="1.1" xmlns="http://www.w3.org/2000/svg" width="1280" height="1320">
<path d="M0 0 C2.0855352 0.0056494 4.17106224 0.00846398 6.25660324 0.0110817 C26.30532252 0.04765926 46.11697957 0.3947433 65.98929977 3.31805801 C67.85255905 3.58344376 67.85255905 3.58344376 69.75345993 3.85419083 C130.90362766 12.76470979 190.33358306 33.37840044 240.98929977 69.31805801 C241.7245488 69.83835587 242.45979782 70.35865372 243.21732712 70.89471817 C254.33223521 78.80915365 264.8760954 87.16119856 274.98929977 96.31805801 C275.82751266 97.07167618 275.82751266 97.07167618 276.68265915 97.84051895 C286.93665925 107.07873593 297.21166292 116.57426035 306.13383102 127.12665176 C307.62936412 128.89295506 309.14842539 130.62621918 310.68851852 132.35321426 C336.60442692 161.62945221 348.68928647 194.70721188 352.98929977 233.31805801 C353.08501266 234.14660294 353.18072556 234.97514786 353.27933884 235.8288002 C354.32873118 246.33400746 354.2331308 256.89641978 354.23929977 267.44305801 C354.24031189 269.0025618 354.24031189 269.0025618 354.24134445 270.59357071 C354.22215158 289.32222479 353.28366953 307.73471366 350.98929977 326.31805801 C350.90444321 327.01296341 350.81958664 327.7078688 350.73215866 328.42383194 C340.28452805 413.35115842 315.79265583 496.45333608 261.98929977 628.31805801 C261.53554977 629.3217543 261.08179977 630.32545059 260.61429977 631.35956192 C244.26200058 667.44249991 226.79943863 702.99813132 206.98929977 737.31805801 C206.45014938 738.25375626 205.91099899 739.1894545 205.35551071 740.15350723 C202.24512375 745.54852298 199.12281699 750.93644628 195.98929977 756.31805801 C205.21761055 756.54309185 214.09694249 755.92568872 223.23929977 754.69305801 C223.89427444 754.60768784 224.54924911 754.52231766 225.2240715 754.4343605 C235.23615102 753.12647962 245.14296673 751.42490468 255.05979538 749.53393936 C281.62896139 744.47135847 308.95605389 741.93185706 332.98929977 757.31805801 C345.9060165 767.21748396 353.84053516 778.87176416 358.98929977 794.31805801 C359.242113 798.72816679 359.26030016 803.14067875 359.28446579 807.55707169 C359.29589552 809.00671596 359.31620174 810.45632123 359.34598923 811.9057045 C359.54036816 821.37597662 358.74094708 829.47132138 354.98929977 838.31805801 C354.53168259 839.43180801 354.0740654 840.54555801 353.60258102 841.69305801 C347.85629938 853.28915791 339.83444848 862.94875235 330.98929977 872.31805801 C330.41695602 872.93165176 329.84461227 873.54524551 329.25492477 874.17743301 C315.14024478 888.8298151 297.4341214 900.09036118 279.98929977 910.31805801 C279.27435349 910.7447377 278.5594072 911.17141739 277.82279587 911.61102676 C231.42229748 939.21141473 174.75866213 949.60811092 121.25297165 949.44842911 C119.09469887 949.44300879 116.93662932 949.44844896 114.77836227 949.45477676 C107.77806274 949.45778299 100.92799758 949.29599529 93.98929977 948.31805801 C93.29303457 957.60980092 92.80290262 966.90488912 92.37601852 976.21258926 C90.07148856 1026.02757202 86.52455337 1075.46410426 75.98929977 1124.31805801 C75.78256638 1125.27695938 75.57583298 1126.23586075 75.36283493 1127.22381973 C62.14367287 1186.97930943 34.62613441 1245.03909305 -17.57320023 1279.81805801 C-66.71282902 1310.92165411 -137.14662975 1329.46855357 -195.01070023 1317.31805801 C-201.79813207 1315.68406936 -208.42177331 1313.61691242 -215.01070023 1311.31805801 C-216.10511429 1310.93907364 -217.19952835 1310.56008926 -218.32710648 1310.16962051 C-231.84225824 1304.98421535 -244.22551551 1296.88161987 -255.01070023 1287.31805801 C-255.78671585 1286.67352676 -256.56273148 1286.02899551 -257.36226273 1285.36493301 C-263.37606847 1280.28109723 -268.19847021 1274.53142259 -273.01070023 1268.31805801 C-273.76480179 1267.36801895 -274.51890335 1266.41797989 -275.29585648 1265.43915176 C-290.34886035 1246.04840406 -298.34617091 1223.73073749 -306.26070023 1200.75555801 C-306.5589772 1199.89626694 -306.85725418 1199.03697586 -307.16456985 1198.15164566 C-328.64535475 1136.02967761 -329.29453361 1067.76699792 -330.72041702 1002.70233536 C-330.85376144 996.831078 -331.137768 991.12806597 -332.01070023 985.31805801 C-333.16183304 985.7653627 -334.31296585 986.21266739 -335.49898148 986.67352676 C-352.99610081 993.36491238 -370.41532028 997.96204539 -389.01070023 1000.31805801 C-390.06305862 1000.46162735 -390.06305862 1000.46162735 -391.13667679 1000.60809708 C-399.9293694 1001.6641286 -408.79291135 1001.56187476 -417.63570023 1001.56805801 C-418.50341049 1001.56873276 -419.37112076 1001.5694075 -420.26512527 1001.57010269 C-434.37557448 1001.55271629 -448.1006884 1000.85400319 -462.01070023 998.31805801 C-463.52687943 998.0446962 -463.52687943 998.0446962 -465.07368851 997.76581192 C-477.63173168 995.44283592 -489.99689095 992.69758185 -502.01070023 988.31805801 C-502.68616898 988.07361954 -503.36163773 987.82918106 -504.05757523 987.57733536 C-522.4284809 980.79455884 -539.70217564 970.92266219 -553.01070023 956.31805801 C-553.01070023 955.65805801 -553.01070023 954.99805801 -553.01070023 954.31805801 C-553.87308304 954.99610489 -554.73546585 955.67415176 -555.62398148 956.37274551 C-581.08804539 975.96457856 -611.32707072 987.34014038 -643.76070023 983.63055801 C-681.14032962 978.69175399 -712.08367479 956.57196795 -736.01070023 928.31805801 C-736.71126541 927.50075211 -736.71126541 927.50075211 -737.42598343 926.66693497 C-798.83291513 854.33270117 -830.46846739 753.7539971 -870.32765579 616.81982803 C-870.96951358 614.46891134 -871.61661501 612.119522 -872.26607132 609.77069473 C-894.0055173 531.03131372 -915.28031815 446.69341751 -920.19820023 336.63055801 C-920.19759598 335.5471312 -920.19699173 334.46370438 -920.19636917 333.34744644 C-920.17055291 316.26416486 -919.83214615 299.31986979 -918.01070023 282.31805801 C-917.88179398 281.11310684 -917.75288773 279.90815567 -917.62007523 278.66669083 C-913.78484404 244.31828929 -906.31591009 210.28907351 -893.01070023 178.31805801 C-892.49684769 177.07596573 -892.49684769 177.07596573 -891.97261429 175.80878067 C-881.82403165 151.57230071 -868.18729981 129.22009591 -851.01070023 109.31805801 C-850.35327835 108.54977676 -849.69585648 107.78149551 -849.01851273 106.98993301 C-837.79959325 94.20459836 -825.79047235 82.31364301 -812.01070023 72.31805801 C-811.47380569 71.92569962 -810.93691116 71.53334122 -810.3837471 71.12909317 C-731.21529866 13.67665595 -628.43812594 9.96756869 -535.01070023 24.31805801 C-498.21847024 30.20547943 -461.70331788 38.83075899 -426.32173538 50.53876114 C-425.17366409 50.91452286 -424.0255928 51.29028458 -422.84273148 51.67743301 C-421.83573196 52.01742325 -420.82873245 52.35741348 -419.7912178 52.70770645 C-415.10941982 53.73540818 -411.87708713 52.46248635 -407.80757523 50.16571426 C-407.00529495 49.72388809 -406.20301468 49.28206192 -405.37642288 48.82684708 C-404.08164017 48.11093399 -404.08164017 48.11093399 -402.76070023 47.38055801 C-362.53213801 25.79795208 -315.28947894 14.30258161 -269.67085648 14.11493301 C-267.94840965 14.10447952 -267.94840965 14.10447952 -266.19116592 14.09381485 C-262.48513979 14.07646686 -258.77926533 14.07008978 -255.07320023 14.06805801 C-253.80359451 14.06705093 -252.5339888 14.06604385 -251.22591019 14.06500626 C-221.06955842 14.08115042 -191.65713797 16.30879594 -161.88032913 20.99847794 C-156.10950846 21.64115313 -151.19232962 21.32930179 -145.60054398 19.77899551 C-144.37964066 19.44875381 -143.15873734 19.11851212 -141.90083694 18.77826309 C-140.93691025 18.51283203 -140.93691025 18.51283203 -139.95351028 18.24203873 C-117.63839267 12.13297389 -95.11199519 7.71100589 -72.19820023 4.56805801 C-71.47034317 4.46691696 -70.74248611 4.36577591 -69.99257278 4.26156998 C-46.70036317 1.06322194 -23.50209878 -0.06469924 0 0 Z " fill="#FDFDFD" transform="translate(921.0107002258301,-0.3180580139160156)"/>
<path d="M0 0 C1.10456543 0.21108398 2.20913086 0.42216797 3.34716797 0.63964844 C53.69393957 10.57580619 103.31816407 33.52598541 143.28857422 65.62646484 C144.8184102 66.85426188 146.3633276 68.06321253 147.91015625 69.26953125 C152.91904731 73.1945819 157.68883464 77.33286077 162.3828125 81.62890625 C163.81446173 82.92593772 165.25233318 84.21665441 166.71801758 85.47509766 C172.54690283 90.48221529 178.00340895 95.81982682 183.4375 101.25 C184.32759766 102.12785156 185.21769531 103.00570312 186.13476562 103.91015625 C192.19774829 109.95985261 197.65231641 116.31689861 203 123 C203.92350784 124.08971831 204.85311296 125.17434959 205.79296875 126.25 C230.11647916 154.18434148 277 212.34510561 277 251 C276.25363281 250.9278125 275.50726562 250.855625 274.73828125 250.78125 C255.65915005 249.21489031 236.4776558 249.37420671 217.4375 251.3125 C216.26815918 251.43012695 215.09881836 251.54775391 213.89404297 251.66894531 C187.31197774 254.65603757 160.26636108 265.09138412 142.5625 285.859375 C140.584625 288.51152556 138.76644007 291.20348129 137 294 C136.45988281 294.80953125 135.91976563 295.6190625 135.36328125 296.453125 C119.53802336 321.16763355 118.86224187 354.89487654 124 383 C124.24991699 384.40330566 124.24991699 384.40330566 124.50488281 385.83496094 C126.71811993 398.0708366 129.20022031 410.04521291 133.25927734 421.81445312 C134.1082741 424.31946926 134.90816246 426.83793161 135.70703125 429.359375 C150.3615492 475.14614354 172.12377438 519.31091243 195.9206543 561.00512695 C200.3554142 568.7965288 204.64126974 576.66073337 208.875 584.5625 C209.48126221 585.69131592 210.08752441 586.82013184 210.7121582 587.9831543 C216.03730532 597.95493232 221.06971556 608.0601359 226.05175781 618.20678711 C236.47533393 639.30964449 249.61993613 657.83393127 264.46484375 676.01953125 C265.19832031 676.92058594 265.93179688 677.82164062 266.6875 678.75 C267.33074219 679.52859375 267.97398437 680.3071875 268.63671875 681.109375 C270 683 270 683 270 685 C269.16082031 685.20302734 269.16082031 685.20302734 268.3046875 685.41015625 C252.02754508 689.78038581 237.23875742 698.65122846 228 713 C222.87290639 722.15402271 218.80988941 731.61931196 217 742 C216.82082031 742.99644531 216.64164063 743.99289062 216.45703125 745.01953125 C215.67827982 750.66071202 215.75641059 756.37851848 215.625 762.0625 C215.21257106 776.10186369 213.9812013 789.9824094 212.44140625 803.94287109 C211.97921373 808.15360342 211.55069779 812.36747704 211.125 816.58203125 C207.61463882 851.15529732 203.50294289 885.66861814 198.74975586 920.09301758 C197.43492682 929.63492537 196.24596344 939.18302415 195.125 948.75 C191.68785537 977.61988113 187.87218648 1006.50564194 182.375 1035.0625 C182.24096771 1035.7713736 182.10693542 1036.48024719 181.96884155 1037.21060181 C180.02444658 1047.39727674 177.26789788 1057.17232809 174 1067 C173.7304248 1067.82508057 173.46084961 1068.65016113 173.18310547 1069.50024414 C168.33998605 1084.01011655 161.3203175 1097.61273238 151 1109 C150.25234375 1109.82886719 149.5046875 1110.65773438 148.734375 1111.51171875 C121.59102148 1140.09979915 73.51356517 1153.86084417 35.04296875 1155.34765625 C6.63370003 1155.94504282 -16.04702998 1150.01369895 -37 1130 C-37.60328125 1129.47148438 -38.2065625 1128.94296875 -38.828125 1128.3984375 C-48.57416402 1119.51770101 -54.62722327 1107.23584572 -60.3125 1095.5625 C-61.04956177 1094.06420654 -61.04956177 1094.06420654 -61.80151367 1092.53564453 C-67.93487771 1079.59356898 -71.57089217 1066.42112402 -73.5625 1052.25 C-73.66228149 1051.55778351 -73.76206299 1050.86556702 -73.86486816 1050.15237427 C-78.34001121 1018.74011038 -80.25446814 986.76178557 -80.82421875 955.05078125 C-80.90295861 950.77814339 -81.07766833 946.52931514 -81.36945415 942.26588398 C-82.03445599 932.41299106 -82.10504449 922.61157709 -82.03417969 912.74047852 C-82.02568467 910.98395024 -82.01773625 909.22741924 -82.01028442 907.47088623 C-81.99372657 903.72467322 -81.97432677 899.97848998 -81.95290375 896.23230171 C-81.91991916 890.29054575 -81.89946279 884.34878569 -81.88165283 878.40696716 C-81.87539351 876.36117267 -81.86913359 874.31537819 -81.86287308 872.2695837 C-81.85819889 870.73422571 -81.85819889 870.73422571 -81.85343027 869.16785038 C-81.81064089 855.36367338 -81.75861211 841.55962526 -81.67773438 827.75561523 C-81.62303399 818.4028085 -81.58649483 809.05011696 -81.57022786 799.69716209 C-81.56091849 794.76591624 -81.5426573 789.83508813 -81.50191498 784.90399361 C-81.46367451 780.26374517 -81.44953853 775.62401104 -81.45275497 770.98361206 C-81.44982038 769.29632212 -81.43850198 767.60901875 -81.41743088 765.92185783 C-81.15103657 743.57206913 -87.91670159 723.76943949 -103 707 C-103.55171875 706.36707031 -104.1034375 705.73414063 -104.671875 705.08203125 C-112.72368699 696.39757689 -122.96639314 691.78173688 -134 688 C-134.88300781 687.62746094 -135.76601563 687.25492188 -136.67578125 686.87109375 C-141.57518409 685.58723143 -146.33528051 685.79046277 -151.375 685.875 C-152.90833984 685.88853516 -152.90833984 685.88853516 -154.47265625 685.90234375 C-156.98201522 685.9257957 -159.49088336 685.95861645 -162 686 C-160.67970458 678.01847028 -158.35660079 670.56260348 -155.6875 662.9375 C-155.47235748 662.31939453 -155.25721497 661.70128906 -155.03555298 661.06445312 C-147.26743107 638.79411773 -138.48209889 617.00134336 -128.68017578 595.55322266 C-123.11841722 583.27192403 -118.42813748 570.72828186 -114 558 C-113.69481445 557.13761719 -113.38962891 556.27523437 -113.07519531 555.38671875 C-108.33282541 541.87451177 -105.35600362 528.1123631 -103 514 C-102.80100098 512.82856445 -102.60200195 511.65712891 -102.39697266 510.45019531 C-99.43178023 492.24133959 -98.62867756 474.25071586 -98.625 455.8125 C-98.62214493 454.2797644 -98.62214493 454.2797644 -98.61923218 452.71606445 C-98.62226035 438.37810686 -99.43740984 424.25054646 -101 410 C-101.08014343 409.25990692 -101.16028687 408.51981384 -101.24285889 407.7572937 C-101.74401905 403.18673683 -102.29735106 398.62410682 -102.875 394.0625 C-102.95959473 393.38988129 -103.04418945 392.71726257 -103.13134766 392.02426147 C-104.58703409 380.50789805 -106.35982252 369.07074418 -108.50439453 357.66162109 C-109.00921222 354.95052629 -109.4888524 352.23582298 -109.96484375 349.51953125 C-115.22822571 319.95421095 -125.34283206 291.34974901 -150.7734375 273.09765625 C-169.2128223 261.10982376 -188.61479053 256.58561971 -210.3125 256.6875 C-211.11235321 256.68932281 -211.91220642 256.69114563 -212.73629761 256.69302368 C-232.24807435 256.76790668 -250.29813366 259.39911765 -269 265 C-269.71124023 265.20963379 -270.42248047 265.41926758 -271.15527344 265.63525391 C-289.30044938 271.06876787 -307.47897294 278.34309979 -323.875 287.85546875 C-326 289 -326 289 -328 289 C-327.41315536 278.00651109 -326.29160948 267.15664222 -324.8125 256.25 C-324.70495392 255.44929077 -324.59740784 254.64858154 -324.48660278 253.8236084 C-322.60168405 239.93393586 -319.98954163 226.3543989 -316.65820312 212.73144531 C-316.08559834 210.35522041 -315.55250582 207.97710353 -315.046875 205.5859375 C-303.20331028 150.23073103 -277.27961469 96.94931138 -238 56 C-237.21753906 55.17628906 -236.43507813 54.35257813 -235.62890625 53.50390625 C-174.46661663 -9.40276239 -81.45753078 -15.5709919 0 0 Z " fill="#336791" transform="translate(739,93)"/>
<path d="M0 0 C1.38658128 0.41972525 2.7732857 0.83904408 4.16015625 1.2578125 C9.13123084 2.77099191 14.0739086 4.34593119 19 6 C17.49214804 9.60254359 15.39499019 11.7192572 12.5625 14.375 C6.89172393 19.93138001 2.08528329 25.97321723 -2.70361328 32.29345703 C-3.89340173 33.85967573 -5.10019387 35.41293934 -6.30859375 36.96484375 C-60.15075437 106.93085996 -81.00981472 200.27464038 -85.3125 303.625 C-85.32083862 305.34251465 -85.32083862 305.34251465 -85.3293457 307.09472656 C-85.28087798 313.04507111 -85.0251729 318.92993738 -84.53930664 324.85888672 C-82.9644807 344.07957286 -82.72453489 363.13549134 -82.80438232 382.40740967 C-82.81524119 385.70825858 -82.8147956 389.00906713 -82.81440258 392.3099308 C-82.81488381 415.76487261 -83.14590282 438.89575729 -86.21414185 462.17883301 C-90.05340139 491.8933229 -92.07311703 522.6111674 -85 552 C-84.54947266 553.92392578 -84.54947266 553.92392578 -84.08984375 555.88671875 C-83.18656869 559.31603575 -82.14402157 562.64344825 -81 566 C-80.75910645 566.71430176 -80.51821289 567.42860352 -80.27001953 568.16455078 C-71.73298214 593.21105792 -59.14325629 616.16772235 -41.125 635.6875 C-39.15295319 637.83355094 -37.2603596 640.02796904 -35.375 642.25 C-32.20397501 645.90373372 -28.74535968 648.94256352 -25 652 C-28.61414913 657.14742452 -32.50790851 661.63446554 -37.01171875 666.01953125 C-39.46273539 668.46091717 -41.69861272 671.04632259 -43.953125 673.66796875 C-46.58166848 676.66270244 -49.28931423 679.57971009 -52 682.5 C-55.82816523 686.62851721 -59.60859432 690.78487178 -63.29296875 695.04296875 C-65.33633431 697.3855915 -67.41680859 699.69273422 -69.5 702 C-75.8368398 709.02909961 -82.0211396 716.18092123 -88.17285156 723.37182617 C-91.95077348 727.78504102 -95.75221606 732.17721781 -99.5625 736.5625 C-103.64946103 741.27107285 -107.71909864 745.99330914 -111.75 750.75 C-112.20342773 751.28447754 -112.65685547 751.81895508 -113.12402344 752.36962891 C-115.91785628 755.6772584 -118.62316878 759.04488143 -121.3125 762.4375 C-129.78688243 772.79170966 -139.02345346 782.75534806 -151 789 C-151.76054687 789.42925781 -152.52109375 789.85851562 -153.3046875 790.30078125 C-161.66639363 794.39717264 -171.86661487 794.26522016 -180.859375 792.41015625 C-195.03823056 787.38268622 -207.64001716 775.39316894 -217 764 C-217.42651855 763.49114258 -217.85303711 762.98228516 -218.29248047 762.45800781 C-265.95981262 705.47975496 -289.87956573 629.58263179 -313.24224854 560.24789429 C-313.73859656 558.77546177 -314.23575857 557.30330333 -314.73382568 555.83145142 C-317.11732266 548.78640218 -319.47023024 541.75447629 -321.375 534.5625 C-323.30991265 527.43197404 -325.35147059 520.33773321 -327.4375 513.25 C-331.94938343 497.86902359 -336.13464381 482.40511396 -340.17626953 466.89453125 C-341.35717515 462.37924819 -342.59176889 457.8835535 -343.87207031 453.39550781 C-346.14238994 445.41231547 -348.11213978 437.39674941 -349.9140625 429.29541016 C-351.69824746 421.27615552 -353.57724493 413.28169062 -355.47280884 405.28823853 C-366.41478016 359.09253406 -375.81703141 312.33019353 -381.625 265.1875 C-381.74834717 264.19741943 -381.87169434 263.20733887 -381.9987793 262.18725586 C-383.71286124 247.82099533 -384.23662434 233.51464436 -384.25 219.0625 C-384.25133942 218.19748871 -384.25267883 217.33247742 -384.25405884 216.44125366 C-384.24841896 199.46969485 -383.06016457 182.84530322 -381 166 C-380.88253418 165.00000977 -380.76506836 164.00001953 -380.64404297 162.96972656 C-374.20427854 109.10817432 -353.77622246 54.06521908 -310.34399414 19.11547852 C-280.89144146 -3.80509434 -246.45572871 -15.78151466 -210 -22 C-209.0620459 -22.16661133 -208.1240918 -22.33322266 -207.15771484 -22.50488281 C-139.49743636 -34.0220333 -64.76996355 -19.86398803 0 0 Z " fill="#336791" transform="translate(458,114)"/>
<path d="M0 0 C2.0855352 0.0056494 4.17106224 0.00846398 6.25660324 0.0110817 C26.30532252 0.04765926 46.11697957 0.3947433 65.98929977 3.31805801 C67.85255905 3.58344376 67.85255905 3.58344376 69.75345993 3.85419083 C130.90362766 12.76470979 190.33358306 33.37840044 240.98929977 69.31805801 C241.7245488 69.83835587 242.45979782 70.35865372 243.21732712 70.89471817 C254.33223521 78.80915365 264.8760954 87.16119856 274.98929977 96.31805801 C275.82751266 97.07167618 275.82751266 97.07167618 276.68265915 97.84051895 C286.93665925 107.07873593 297.21166292 116.57426035 306.13383102 127.12665176 C307.62936412 128.89295506 309.14842539 130.62621918 310.68851852 132.35321426 C336.60442692 161.62945221 348.68928647 194.70721188 352.98929977 233.31805801 C353.08501266 234.14660294 353.18072556 234.97514786 353.27933884 235.8288002 C354.32873118 246.33400746 354.2331308 256.89641978 354.23929977 267.44305801 C354.24031189 269.0025618 354.24031189 269.0025618 354.24134445 270.59357071 C354.22215158 289.32222479 353.28366953 307.73471366 350.98929977 326.31805801 C350.90444321 327.01296341 350.81958664 327.7078688 350.73215866 328.42383194 C340.28452805 413.35115842 315.79265583 496.45333608 261.98929977 628.31805801 C261.53554977 629.3217543 261.08179977 630.32545059 260.61429977 631.35956192 C244.26200058 667.44249991 226.79943863 702.99813132 206.98929977 737.31805801 C206.45014938 738.25375626 205.91099899 739.1894545 205.35551071 740.15350723 C202.24512375 745.54852298 199.12281699 750.93644628 195.98929977 756.31805801 C205.21761055 756.54309185 214.09694249 755.92568872 223.23929977 754.69305801 C223.89427444 754.60768784 224.54924911 754.52231766 225.2240715 754.4343605 C235.23615102 753.12647962 245.14296673 751.42490468 255.05979538 749.53393936 C281.62896139 744.47135847 308.95605389 741.93185706 332.98929977 757.31805801 C345.9060165 767.21748396 353.84053516 778.87176416 358.98929977 794.31805801 C359.242113 798.72816679 359.26030016 803.14067875 359.28446579 807.55707169 C359.29589552 809.00671596 359.31620174 810.45632123 359.34598923 811.9057045 C359.54036816 821.37597662 358.74094708 829.47132138 354.98929977 838.31805801 C354.53168259 839.43180801 354.0740654 840.54555801 353.60258102 841.69305801 C347.85629938 853.28915791 339.83444848 862.94875235 330.98929977 872.31805801 C330.41695602 872.93165176 329.84461227 873.54524551 329.25492477 874.17743301 C315.14024478 888.8298151 297.4341214 900.09036118 279.98929977 910.31805801 C279.27435349 910.7447377 278.5594072 911.17141739 277.82279587 911.61102676 C231.42229748 939.21141473 174.75866213 949.60811092 121.25297165 949.44842911 C119.09469887 949.44300879 116.93662932 949.44844896 114.77836227 949.45477676 C107.77806274 949.45778299 100.92799758 949.29599529 93.98929977 948.31805801 C93.29303457 957.60980092 92.80290262 966.90488912 92.37601852 976.21258926 C90.07148856 1026.02757202 86.52455337 1075.46410426 75.98929977 1124.31805801 C75.78256638 1125.27695938 75.57583298 1126.23586075 75.36283493 1127.22381973 C62.14367287 1186.97930943 34.62613441 1245.03909305 -17.57320023 1279.81805801 C-66.71282902 1310.92165411 -137.14662975 1329.46855357 -195.01070023 1317.31805801 C-201.79813207 1315.68406936 -208.42177331 1313.61691242 -215.01070023 1311.31805801 C-216.10511429 1310.93907364 -217.19952835 1310.56008926 -218.32710648 1310.16962051 C-231.84225824 1304.98421535 -244.22551551 1296.88161987 -255.01070023 1287.31805801 C-255.78671585 1286.67352676 -256.56273148 1286.02899551 -257.36226273 1285.36493301 C-263.37606847 1280.28109723 -268.19847021 1274.53142259 -273.01070023 1268.31805801 C-273.76480179 1267.36801895 -274.51890335 1266.41797989 -275.29585648 1265.43915176 C-290.34886035 1246.04840406 -298.34617091 1223.73073749 -306.26070023 1200.75555801 C-306.5589772 1199.89626694 -306.85725418 1199.03697586 -307.16456985 1198.15164566 C-328.64535475 1136.02967761 -329.29453361 1067.76699792 -330.72041702 1002.70233536 C-330.85376144 996.831078 -331.137768 991.12806597 -332.01070023 985.31805801 C-333.16183304 985.7653627 -334.31296585 986.21266739 -335.49898148 986.67352676 C-352.99610081 993.36491238 -370.41532028 997.96204539 -389.01070023 1000.31805801 C-390.06305862 1000.46162735 -390.06305862 1000.46162735 -391.13667679 1000.60809708 C-399.9293694 1001.6641286 -408.79291135 1001.56187476 -417.63570023 1001.56805801 C-418.50341049 1001.56873276 -419.37112076 1001.5694075 -420.26512527 1001.57010269 C-434.37557448 1001.55271629 -448.1006884 1000.85400319 -462.01070023 998.31805801 C-463.52687943 998.0446962 -463.52687943 998.0446962 -465.07368851 997.76581192 C-477.63173168 995.44283592 -489.99689095 992.69758185 -502.01070023 988.31805801 C-502.68616898 988.07361954 -503.36163773 987.82918106 -504.05757523 987.57733536 C-522.4284809 980.79455884 -539.70217564 970.92266219 -553.01070023 956.31805801 C-553.01070023 955.65805801 -553.01070023 954.99805801 -553.01070023 954.31805801 C-553.87308304 954.99610489 -554.73546585 955.67415176 -555.62398148 956.37274551 C-581.08804539 975.96457856 -611.32707072 987.34014038 -643.76070023 983.63055801 C-681.14032962 978.69175399 -712.08367479 956.57196795 -736.01070023 928.31805801 C-736.71126541 927.50075211 -736.71126541 927.50075211 -737.42598343 926.66693497 C-798.83291513 854.33270117 -830.46846739 753.7539971 -870.32765579 616.81982803 C-870.96951358 614.46891134 -871.61661501 612.119522 -872.26607132 609.77069473 C-894.0055173 531.03131372 -915.28031815 446.69341751 -920.19820023 336.63055801 C-920.19759598 335.5471312 -920.19699173 334.46370438 -920.19636917 333.34744644 C-920.17055291 316.26416486 -919.83214615 299.31986979 -918.01070023 282.31805801 C-917.88179398 281.11310684 -917.75288773 279.90815567 -917.62007523 278.66669083 C-913.78484404 244.31828929 -906.31591009 210.28907351 -893.01070023 178.31805801 C-892.49684769 177.07596573 -892.49684769 177.07596573 -891.97261429 175.80878067 C-881.82403165 151.57230071 -868.18729981 129.22009591 -851.01070023 109.31805801 C-850.35327835 108.54977676 -849.69585648 107.78149551 -849.01851273 106.98993301 C-837.79959325 94.20459836 -825.79047235 82.31364301 -812.01070023 72.31805801 C-811.47380569 71.92569962 -810.93691116 71.53334122 -810.3837471 71.12909317 C-731.21529866 13.67665595 -628.43812594 9.96756869 -535.01070023 24.31805801 C-498.21847024 30.20547943 -461.70331788 38.83075899 -426.32173538 50.53876114 C-425.17366409 50.91452286 -424.0255928 51.29028458 -422.84273148 51.67743301 C-421.83573196 52.01742325 -420.82873245 52.35741348 -419.7912178 52.70770645 C-415.10941982 53.73540818 -411.87708713 52.46248635 -407.80757523 50.16571426 C-407.00529495 49.72388809 -406.20301468 49.28206192 -405.37642288 48.82684708 C-404.08164017 48.11093399 -404.08164017 48.11093399 -402.76070023 47.38055801 C-362.53213801 25.79795208 -315.28947894 14.30258161 -269.67085648 14.11493301 C-267.94840965 14.10447952 -267.94840965 14.10447952 -266.19116592 14.09381485 C-262.48513979 14.07646686 -258.77926533 14.07008978 -255.07320023 14.06805801 C-253.80359451 14.06705093 -252.5339888 14.06604385 -251.22591019 14.06500626 C-221.06955842 14.08115042 -191.65713797 16.30879594 -161.88032913 20.99847794 C-156.10950846 21.64115313 -151.19232962 21.32930179 -145.60054398 19.77899551 C-144.37964066 19.44875381 -143.15873734 19.11851212 -141.90083694 18.77826309 C-140.93691025 18.51283203 -140.93691025 18.51283203 -139.95351028 18.24203873 C-117.63839267 12.13297389 -95.11199519 7.71100589 -72.19820023 4.56805801 C-71.47034317 4.46691696 -70.74248611 4.36577591 -69.99257278 4.26156998 C-46.70036317 1.06322194 -23.50209878 -0.06469924 0 0 Z M-149.78413773 57.75165176 C-156.06062143 59.67241097 -160.65420738 60.69917483 -167.13570023 59.13055801 C-168.36933304 58.84825333 -169.60296585 58.56594864 -170.87398148 58.27508926 C-171.54123245 58.11991837 -172.20848343 57.96474747 -172.89595413 57.80487442 C-184.44175998 55.14701978 -195.99595236 53.05323014 -207.76070023 51.63055801 C-208.74079056 51.51131973 -209.72088089 51.39208145 -210.73067093 51.26922989 C-225.71285679 49.55428942 -240.63451376 49.11295111 -255.69820023 49.13055801 C-256.57810623 49.13082993 -257.45801224 49.13110184 -258.36458206 49.13138199 C-271.35174237 49.14981207 -284.13284056 49.51328971 -297.01070023 51.31805801 C-297.83827835 51.42521133 -298.66585648 51.53236465 -299.51851273 51.64276505 C-334.59102999 56.19239106 -366.96971519 67.92704139 -397.76070023 85.13055801 C-398.42851517 85.50358047 -399.09633011 85.87660294 -399.78438187 86.26092911 C-403.52214511 88.38002748 -403.52214511 88.38002748 -406.90645218 91.007267 C-409.01070023 92.31805801 -409.01070023 92.31805801 -411.38350296 92.10419083 C-412.249189 91.82929825 -413.11487503 91.55440567 -414.00679398 91.27118301 C-415.46641556 90.81775528 -415.46641556 90.81775528 -416.95552444 90.35516739 C-422.01232674 88.63858627 -427.04831466 86.87596562 -432.07320023 85.06805801 C-445.22212396 80.43645746 -458.50706902 76.75155165 -472.01070023 73.31805801 C-474.33761888 72.7142602 -476.66444034 72.11008765 -478.99116898 71.50555801 C-545.26669562 54.43632383 -614.94831898 45.85333945 -683.01070023 56.31805801 C-684.02245316 56.47290665 -685.03420609 56.62775528 -686.07661819 56.7872963 C-720.88019539 62.38238802 -756.32134214 75.74139157 -785.01070023 96.31805801 C-785.5973848 96.73797012 -786.18406937 97.15788223 -786.78853226 97.59051895 C-795.06264991 103.5872062 -802.64120806 110.26046365 -810.01070023 117.31805801 C-810.50956741 117.78969376 -811.0084346 118.2613295 -811.52241898 118.74725723 C-852.10644036 157.25773768 -872.9309533 213.78855133 -880.01070023 268.31805801 C-880.13596085 269.2766069 -880.26122147 270.23515579 -880.39027786 271.22275162 C-882.86407378 290.78264231 -883.51558472 310.09503118 -883.45674515 329.79144669 C-883.44756467 333.01241446 -883.45449013 336.23265627 -883.47725296 339.45355606 C-883.64567596 363.43500244 -883.06770889 387.47496257 -877.50587845 410.93457413 C-876.62811248 415.15960046 -876.11948036 419.4416249 -875.53105545 423.71481705 C-874.7291557 429.26763537 -873.69959746 434.77135771 -872.65523148 440.28290176 C-872.32161102 442.05927773 -872.32161102 442.05927773 -871.98125076 443.87154007 C-871.26624937 447.66705057 -870.54547954 451.46142617 -869.82320023 455.25555801 C-869.57452187 456.56561067 -869.32587498 457.87566929 -869.07725906 459.1857338 C-865.64343202 477.25858028 -862.03881849 495.25164822 -857.76509476 513.14569473 C-857.01628894 516.29455648 -856.28896637 519.44757627 -855.56929398 522.60321426 C-854.06948163 529.17947192 -852.5434159 535.74939801 -851.01070023 542.31805801 C-850.84185318 543.04305496 -850.67300613 543.76805191 -850.49904251 544.51501846 C-849.34903155 549.45242118 -848.19400096 554.38861665 -847.03383255 559.32364273 C-846.65163622 560.95155215 -846.2706011 562.57973477 -845.89088821 564.20822525 C-843.53666605 574.29694009 -840.9613368 584.2937906 -838.14668655 594.2638588 C-836.72040188 599.32202452 -835.42669798 604.411506 -834.13570023 609.50555801 C-831.34983937 620.33915576 -828.12818864 631.01422044 -824.81587601 641.69647598 C-823.27001672 646.72965882 -821.81050935 651.7878904 -820.34663773 656.84540176 C-818.32629753 663.69728196 -816.15424251 670.5039632 -814.01070023 677.31805801 C-813.79949539 677.99126083 -813.58829056 678.66446365 -813.37068558 679.35806656 C-801.89499059 715.91643138 -789.30660007 752.16636768 -774.01070023 787.31805801 C-773.244272 789.08777969 -773.244272 789.08777969 -772.46236038 790.89325333 C-748.15728329 846.76579144 -716.47270306 917.17837778 -656.01070023 941.31805801 C-638.64039827 948.12742194 -618.11190928 945.56191889 -601.35152054 938.39178848 C-590.88260548 933.58971418 -582.31455061 927.31272248 -574.01070023 919.31805801 C-572.62088162 918.12352414 -571.22534094 916.93560392 -569.82320023 915.75555801 C-565.81606338 912.25130886 -562.42379196 908.3934923 -559.01070023 904.31805801 C-557.74032913 902.82725723 -557.74032913 902.82725723 -556.44429398 901.30633926 C-552.03287953 896.12718174 -547.66866213 890.91687114 -543.38570023 885.63055801 C-539.81020608 881.23435436 -536.06978814 877.02819943 -532.25288773 872.84149551 C-529.96554119 870.26723443 -527.79521752 867.62516312 -525.63570023 864.94305801 C-521.47507948 859.80047258 -517.06713718 854.94354065 -512.57320023 850.09540176 C-509.91203678 847.21112248 -507.32371015 844.27468668 -504.75288773 841.31024551 C-501.9360676 838.08921802 -499.05759877 834.92388165 -496.19038773 831.74774551 C-494.31924929 829.66199621 -492.47145191 827.55988173 -490.63570023 825.44305801 C-485.39679781 819.43159857 -479.95519235 813.60095161 -474.55366898 807.73602676 C-468.96254831 801.6626531 -463.40039173 795.57230754 -458.01070023 789.31805801 C-453.92380355 790.25196573 -450.25605214 791.91428022 -446.44820023 793.63055801 C-429.05924037 801.29718141 -410.2754819 807.55048971 -391.07320023 807.38055801 C-390.38935257 807.3760463 -389.70550491 807.37153458 -389.0009346 807.36688614 C-387.33748419 807.35525362 -385.67407973 807.33732496 -384.01070023 807.31805801 C-387.01071547 813.3180885 -391.0912451 818.17463451 -395.42476273 823.25946426 C-397.73677049 825.97270845 -399.9437114 828.75659409 -402.13570023 831.56805801 C-416.27682419 849.10417404 -435.22599335 855.09119007 -456.76070023 859.88055801 C-458.08600556 860.18302463 -459.41111766 860.48633907 -460.73604202 860.79047012 C-466.26691363 862.05495669 -471.80378731 863.28671648 -477.35835648 864.44305801 C-496.52836611 868.44500797 -517.34427924 874.19424539 -529.70991898 890.56805801 C-534.44650652 897.95116295 -534.67141519 904.63570499 -534.01070023 913.31805801 C-531.38570913 924.31302072 -523.70215471 933.3631797 -514.32954788 939.40106583 C-474.30118976 963.98706496 -420.89602366 968.21697488 -375.5712471 958.19110489 C-350.28242904 951.99028115 -325.78682159 940.61347663 -306.27876663 923.14081192 C-305.47693954 922.42390182 -304.67511246 921.70699173 -303.84898758 920.96835709 C-302.93903534 920.15145905 -302.93903534 920.15145905 -302.01070023 919.31805801 C-302.00261337 920.34771179 -301.99452652 921.37736557 -301.98619461 922.43822098 C-301.49107339 1012.56798309 -301.49107339 1012.56798309 -297.07320023 1102.56805801 C-296.99379196 1103.65319687 -296.9143837 1104.73833572 -296.83256912 1105.85635757 C-295.96222656 1117.51330317 -294.87232251 1129.13106678 -293.49898148 1140.73993301 C-293.37966766 1141.75315628 -293.26035385 1142.76637955 -293.13742447 1143.81030655 C-291.99522566 1153.11778609 -290.25364907 1162.21674313 -288.01070023 1171.31805801 C-287.84908401 1172.00174454 -287.6874678 1172.68543106 -287.52095413 1173.38983536 C-278.83040575 1209.4058891 -256.28914939 1246.28494616 -224.76070023 1266.50555801 C-184.73396376 1289.9545945 -141.02594564 1288.8480847 -97.01070023 1277.50555801 C-85.13285333 1274.38268918 -73.4296255 1270.85471901 -62.01070023 1266.31805801 C-61.255793 1266.01964005 -60.50088577 1265.72122208 -59.72310257 1265.41376114 C-42.39443082 1258.43656451 -26.67427976 1249.09500402 -13.01070023 1236.31805801 C-12.19327347 1235.56419815 -12.19327347 1235.56419815 -11.35933304 1234.7951088 C22.52002402 1203.28239668 33.64159591 1157.49422059 40.11429977 1113.25555801 C40.45062688 1111.00216643 40.78786333 1108.74891037 41.12601852 1106.49579239 C41.62367313 1103.177999 42.11994723 1099.86004434 42.61066818 1096.5412178 C43.41138881 1091.12849911 44.24004351 1085.72304943 45.12864304 1080.32410049 C47.34290016 1066.80885061 48.93806029 1053.21069458 50.60466385 1039.61946487 C51.31135655 1033.86570589 52.02562225 1028.1128782 52.73944855 1022.36000061 C52.91618491 1020.93559845 53.09281332 1019.51118289 53.26933289 1018.08675385 C54.56671326 1007.62169784 55.91566596 997.1648705 57.32520676 986.71435928 C59.32341102 971.87917443 61.14440523 957.02431349 62.88767624 942.15704727 C63.16040395 939.83462107 63.43513333 937.51242892 63.71201706 935.19049454 C64.09880336 931.93817514 64.47689485 928.68495736 64.85258102 925.43133926 C64.96792694 924.47147614 65.08327286 923.51161301 65.20211411 922.52266312 C65.93053744 916.09681677 66.11747708 909.78276526 65.98929977 903.31805801 C67.1262529 903.77954239 68.26320602 904.24102676 69.43461227 904.71649551 C73.85767659 906.372469 78.20739847 907.23527336 82.86429977 907.94305801 C83.60293259 908.06422989 84.3415654 908.18540176 85.10258102 908.31024551 C151.74508259 918.93608632 227.28535211 901.32164915 281.6943779 862.08856583 C297.85567342 850.28126939 317.8288873 834.98258608 321.98929977 814.31805801 C323.07744167 805.06213494 320.84693401 798.87241258 315.98929977 791.13055801 C310.22748692 784.68452988 300.92764479 781.82045612 292.61039352 780.97430801 C279.56591532 780.31486391 267.32226412 782.99407871 254.6306572 785.60370255 C241.80813671 788.23216603 229.03184622 790.13352 215.98929977 791.31805801 C215.26549118 791.38718399 214.54168259 791.45630997 213.7959404 791.52753067 C187.72892132 793.92777368 157.56209529 795.25998496 133.98929977 782.31805801 C137.96987469 775.29598747 142.15225063 768.4358931 146.48929977 761.63055801 C196.26981218 683.24382382 235.94848257 598.4008854 275.80179977 482.63055801 C276.12174911 481.64314117 276.12174911 481.64314117 276.44816208 480.63577652 C277.98738708 475.8711264 279.49471907 471.09688224 280.98929977 466.31805801 C281.25709244 465.46513168 281.5248851 464.61220535 281.80079269 463.73343277 C286.27791334 449.42650265 290.30660238 435.05242818 293.92679977 420.50555801 C294.18187302 419.48589951 294.43694626 418.466241 294.69974899 417.41568375 C299.80770109 396.90629575 303.99203892 376.27800341 307.61619186 355.45886612 C307.96031632 353.48435846 308.3097687 351.51078135 308.65970993 349.5372963 C318.22605594 295.2032577 327.94974543 219.613587 294.25492477 171.32196426 C287.37752775 162.20348442 279.67740988 153.75271374 271.98929977 145.31805801 C271.16043259 144.38477676 270.3315654 143.45149551 269.47758102 142.48993301 C259.26876534 131.05409621 248.03471943 120.796982 235.98929977 111.31805801 C235.01992477 110.54204239 234.05054977 109.76602676 233.05179977 108.96649551 C168.25761168 57.94107239 84.59516178 34.62948933 2.86429977 35.06805801 C1.25323853 35.07370773 1.25323853 35.07370773 -0.39036942 35.07947159 C-51.16917171 35.2875062 -101.28297872 42.57693996 -149.78413773 57.75165176 Z " fill="#000000" transform="translate(921.0107002258301,-0.3180580139160156)"/>
<path d="M0 0 C2.75543731 0.88689816 5.52073199 1.73858152 8.28662109 2.59228516 C36.77993677 11.56322206 64.24254996 24.36498382 88.55615234 41.82275391 C89.19713867 42.28117676 89.838125 42.73959961 90.49853516 43.21191406 C105.2458356 53.83557881 118.55045557 65.64645145 131.43115234 78.44775391 C131.91770294 78.92894684 132.40425354 79.41013977 132.9055481 79.90591431 C162.53687075 109.28921845 170.66859423 138.62656711 170.86865234 179.51025391 C170.8833957 204.39307714 168.28851968 229.10813916 164.09765625 253.62109375 C163.54313297 256.89973139 163.02221102 260.18251214 162.50537109 263.46728516 C157.76370903 292.96701811 151.07525134 322.1875889 142.55615234 350.82275391 C141.9087288 353.05316853 141.26510362 355.28463726 140.62304688 357.51660156 C125.21595411 410.26170177 106.23756134 461.99614299 83.39880371 511.97460938 C82.58512976 513.75919922 81.77803699 515.54678521 80.97119141 517.33447266 C63.86265083 555.23714127 44.69402753 592.02161959 23.55615234 627.82275391 C22.85060845 629.02042521 22.14520922 630.21818173 21.43994141 631.41601562 C19.62639219 634.49568354 17.81046172 637.57393458 15.99255371 640.65103149 C15.29302252 641.83518614 14.59387588 643.01956806 13.8951416 644.20419312 C7.18716505 655.56976598 7.18716505 655.56976598 3.55615234 660.82275391 C-1.08635611 656.65640017 -1.08635611 656.65640017 -2.37353516 653.65478516 C-2.48213886 649.28046924 -0.30392945 646.39847772 1.86865234 642.69775391 C32.03472404 588.23108622 26.7855833 525.08816389 19.32104492 465.56152344 C17.22102303 448.77539491 16.25599093 432.17551935 16.18115234 415.26025391 C16.17659027 414.25973999 16.1720282 413.25922607 16.16732788 412.22839355 C16.13528093 392.42062336 18.22682608 373.31598029 21.55615234 353.82275391 C30.96889725 299.36407514 30.96889725 299.36407514 21.55615234 245.82275391 C20.74710979 243.60286534 19.93854683 241.38280195 19.13037109 239.16259766 C1.09791288 190.75266501 -26.35535891 146.35783338 -59.44384766 106.82275391 C-60.27835449 105.81857422 -61.11286133 104.81439453 -61.97265625 103.77978516 C-69.11529813 95.26480548 -76.67941451 87.27477365 -84.56225586 79.44360352 C-86.51540253 77.50124906 -88.45752385 75.54832433 -90.39892578 73.59423828 C-97.44324424 66.54210663 -104.59755146 59.9820201 -112.44384766 53.82275391 C-113.73833975 52.75089637 -115.0291056 51.67451185 -116.31494141 50.59228516 C-131.95983113 37.56568751 -148.6346457 26.32211891 -166.23242188 16.10986328 C-168.18842611 14.97141612 -170.13246574 13.81581678 -172.07275391 12.65087891 C-182.18951784 6.67876324 -192.79437455 1.76181673 -203.44384766 -3.17724609 C-203.11384766 -3.83724609 -202.78384766 -4.49724609 -202.44384766 -5.17724609 C-191.586098 -8.02539061 -180.14871532 -9.12193606 -169.02587891 -10.48486328 C-166.44547291 -10.80204632 -163.86655532 -11.12976704 -161.28759766 -11.45849609 C-108.30984482 -18.11338529 -51.16599491 -16.47201148 0 0 Z " fill="#336791" transform="translate(1029.44384765625,86.17724609375)"/>
<path d="M0 0 C1.96646484 -0.01836914 1.96646484 -0.01836914 3.97265625 -0.03710938 C21.64584279 -0.06369892 36.43388524 4.07214008 49.6875 16.125 C70.93794062 38.37677028 72.22725783 77.82502076 75.9375 106.8125 C76.04263916 107.63044037 76.14777832 108.44838074 76.25610352 109.29110718 C78.3760353 125.94612551 79.31163753 142.38026823 79.31030273 159.1706543 C79.31247862 162.22003373 79.33066953 165.26904403 79.34960938 168.31835938 C79.4010567 185.75618334 78.43207048 202.97527944 74.75 220.0625 C74.52868408 221.12001465 74.30736816 222.1775293 74.0793457 223.26708984 C73.44655217 226.245076 72.79304135 229.21724442 72.125 232.1875 C71.88160889 233.27321289 71.88160889 233.27321289 71.63330078 234.38085938 C66.08260126 258.44820184 55.63506061 280.94862233 45.69042969 303.43066406 C39.50770404 317.47663991 33.99740982 331.68633122 28.8125 346.125 C28.52158478 346.93331268 28.23066956 347.74162537 27.93093872 348.57443237 C23.70332083 360.35726962 19.82120477 372.22781091 16.125 384.1875 C-15.5832508 385.82147289 -45.44599127 372.53378365 -68.9375 351.8125 C-70.59172017 350.27983595 -72.23736018 348.73786747 -73.875 347.1875 C-74.75929688 346.36765625 -75.64359375 345.5478125 -76.5546875 344.703125 C-92.13821194 329.78178999 -103.10609034 311.21159108 -110.875 291.1875 C-111.19235107 290.38787842 -111.50970215 289.58825684 -111.83666992 288.7644043 C-114.49683875 281.82219555 -116.17664005 274.91970336 -117.5625 267.625 C-117.88057617 266.03655273 -117.88057617 266.03655273 -118.20507812 264.41601562 C-121.9311365 245.33906693 -121.29271846 226.9324094 -118.85165405 207.73126221 C-118.23966678 202.86924828 -117.6820395 198.00093641 -117.12109375 193.1328125 C-117.01007828 192.17172577 -116.89906281 191.21063904 -116.78468323 190.22042847 C-111.98872113 148.43513755 -112.88094296 105.55017509 -114.65625 63.5703125 C-114.7304809 61.44275378 -114.8033081 59.31514579 -114.875 57.1875 C-114.90601807 56.51512299 -114.93703613 55.84274597 -114.96899414 55.1499939 C-115.06451835 52.98167381 -115.12840341 50.81411946 -115.1875 48.64453125 C-115.23519531 47.3294458 -115.28289062 46.01436035 -115.33203125 44.65942383 C-114.77715121 40.4441733 -113.69147795 39.30255132 -110.375 36.75 C-108.23923998 35.50777223 -106.0687204 34.32424602 -103.875 33.1875 C-102.66221706 32.47628375 -101.454003 31.75723057 -100.25 31.03125 C-69.92295091 12.98739434 -35.52045695 0.01736093 0 0 Z " fill="#336791" transform="translate(524.875,385.8125)"/>
<path d="M0 0 C0.73652802 0.0021048 1.47305603 0.00420959 2.23190308 0.00637817 C36.30782596 0.12032596 36.30782596 0.12032596 39.4375 3.25 C39.42511208 6.09922172 39.33686594 8.90664513 39.1875 11.75 C39.11970337 13.06762329 39.11970337 13.06762329 39.05053711 14.41186523 C38.62205341 21.74334267 37.87306263 29.0216612 37 36.3125 C36.87786133 37.3334375 36.75572266 38.354375 36.62988281 39.40625 C35.92419797 45.04439695 35.03336783 50.61493813 33.99291992 56.19995117 C25.61919066 102.18368732 27.2627911 147.79464679 33.30818176 193.95654297 C35.65132961 211.90945002 36.83261354 229.56872321 36.875 247.6875 C36.88108276 248.66189026 36.88716553 249.63628052 36.89343262 250.64019775 C36.99944997 276.45979568 32.87337113 300.52510085 22.4375 324.25 C21.7775 324.91 21.1175 325.57 20.4375 326.25 C19.94459473 325.22342285 19.45168945 324.1968457 18.94384766 323.13916016 C6.98929181 298.02813784 6.98929181 298.02813784 -6.2265625 273.57177734 C-16.62179379 255.50550367 -26.4110352 237.14137099 -35.86816406 218.57128906 C-37.39896089 215.57057435 -38.94352421 212.57745478 -40.4921875 209.5859375 C-55.69809564 179.992023 -69.06719337 148.47124266 -77.5625 116.25 C-77.9205119 114.94789989 -78.27858579 113.64581682 -78.63671875 112.34375 C-79.71613768 108.33440899 -80.67237506 104.30533263 -81.5625 100.25 C-81.71493164 99.56341309 -81.86736328 98.87682617 -82.02441406 98.16943359 C-86.08525347 79.07120938 -88.1702788 55.613604 -80.5625 37.25 C-80.16160156 36.27804687 -79.76070312 35.30609375 -79.34765625 34.3046875 C-72.20614734 19.44206895 -59.51058281 11.57495706 -44.5625 6.1640625 C-42.24119278 5.44926973 -39.91995978 4.83159554 -37.5625 4.25 C-36.49 3.899375 -35.4175 3.54875 -34.3125 3.1875 C-22.9559209 0.34835523 -11.63505886 -0.08260864 0 0 Z " fill="#346791" transform="translate(981.5625,378.75)"/>
<path d="M0 0 C11.81853 4.44117045 17.83979268 12.0805988 23.04296875 23.3671875 C25.85507532 30.71283037 26.17965526 38.41457874 23.75390625 45.92578125 C20.39423198 53.36170367 14.51832846 59.22201925 9.00390625 65.11328125 C8.44316406 65.71785156 7.88242187 66.32242188 7.3046875 66.9453125 C-14.31635662 90.05063883 -40.94676918 102.84361566 -71.99609375 108.11328125 C-72.90327148 108.28456543 -73.81044922 108.45584961 -74.74511719 108.63232422 C-81.08774445 109.57066724 -87.53175233 109.40475827 -93.93359375 109.42578125 C-95.07100006 109.42970886 -95.07100006 109.42970886 -96.23138428 109.43371582 C-109.51059546 109.43861732 -122.03662324 108.11924944 -134.99609375 105.11328125 C-136.50773584 104.78610392 -138.01945126 104.45926519 -139.53125 104.1328125 C-149.44916965 101.90108101 -159.50781423 98.87919364 -167.99609375 93.11328125 C-167.99609375 92.45328125 -167.99609375 91.79328125 -167.99609375 91.11328125 C-158.77980369 87.62436742 -149.49440942 85.20683374 -139.87109375 83.11328125 C-138.70344482 82.85909424 -137.5357959 82.60490723 -136.33276367 82.34301758 C-132.88780502 81.59697103 -129.44201248 80.85487865 -125.99609375 80.11328125 C-100.68184487 74.65310022 -75.34203699 67.4508971 -56.99609375 48.11328125 C-56.51269531 47.66210938 -56.02929688 47.2109375 -55.53125 46.74609375 C-49.79825205 41.32335216 -45.15782922 35.06460457 -40.34082031 28.84277344 C-14.56350268 -4.31018919 -14.56350268 -4.31018919 0 0 Z " fill="#346891" transform="translate(595.99609375,815.88671875)"/>
<path d="M0 0 C1.50626953 1.03253906 1.50626953 1.03253906 3.04296875 2.0859375 C16.25672218 10.63590168 30.84716731 13.96204106 46.23046875 16.4609375 C48.01324219 16.75291016 48.01324219 16.75291016 49.83203125 17.05078125 C81.57081233 20.741063 115.3652658 16.4326083 146.51977539 10.35498047 C147.20947922 10.2227005 147.89918304 10.09042053 148.60978699 9.95413208 C150.47304612 9.59437234 152.33403219 9.22289589 154.19482422 8.85058594 C156.98233191 8.49278778 158.6206107 8.52373563 161.23046875 9.4609375 C123.64092118 41.50732598 79.16918847 56.41188191 30.33837891 60.27246094 C28.25470345 60.45877058 26.19151682 60.72244251 24.1171875 60.9921875 C17.51116759 61.73753331 10.87095327 61.70329632 4.23046875 61.7109375 C3.54271362 61.71227692 2.8549585 61.71361633 2.1463623 61.71499634 C-8.45051357 61.71052313 -18.45145731 61.05816435 -28.76953125 58.4609375 C-29.87554688 58.19796875 -30.9815625 57.935 -32.12109375 57.6640625 C-36.19196892 56.63319489 -39.25243205 55.8056703 -42.76953125 53.4609375 C-43.15771484 51.49658203 -43.15771484 51.49658203 -43.16796875 49.09375 C-43.17425293 48.21372314 -43.18053711 47.33369629 -43.18701172 46.42700195 C-43.17299316 45.48945068 -43.15897461 44.55189941 -43.14453125 43.5859375 C-43.13437988 42.63227295 -43.12422852 41.6786084 -43.11376953 40.69604492 C-42.86868995 29.52212577 -41.0549201 19.326671 -33.76953125 10.4609375 C-26.26106719 3.99189652 -9.73327795 -5.40890199 0 0 Z " fill="#346891" transform="translate(1033.76953125,811.5390625)"/>
<path d="M0 0 C2.95905045 2.23641918 4.67558644 4.37495594 5.42578125 8.1328125 C5.74716135 13.55036272 4.45696488 17.76938009 1 22 C-5.23001115 28.80170629 -12.83738731 33.68974856 -22.16796875 34.4453125 C-30.05546943 34.78548598 -37.24075184 34.44614479 -44 30 C-44.6703125 29.57589844 -45.340625 29.15179688 -46.03125 28.71484375 C-53.67609763 23.43695856 -61.73823727 15.77688691 -63.484375 6.3984375 C-63.76514868 3.33470119 -63.75864461 0.98577675 -63 -2 C-48.66074738 -18.64671856 -15.2874337 -9.48629245 0 0 Z " fill="#FCFDFD" transform="translate(568,416)"/>
<path d="M0 0 C2.21533725 2.73224928 2.53754224 4.67729973 2.28515625 8.171875 C0.81473838 15.8460559 -4.08467323 21.59501452 -10.125 26.3125 C-19.41961901 31.74319628 -27.27560921 34.69020042 -38.125 33.3125 C-46.45101351 30.4468836 -54.63764756 26.22600667 -59.125 18.3125 C-60.4270134 15.16596761 -60.40952869 13.89756144 -60.125 10.3125 C-56.87460544 3.83857365 -50.57175351 0.88931363 -44.125 -1.6875 C-43.33738281 -2.00847656 -42.54976562 -2.32945312 -41.73828125 -2.66015625 C-28.74320522 -7.04624941 -12.07193965 -6.51884741 0 0 Z " fill="#FCFDFD" transform="translate(984.125,401.6875)"/>
</svg>
