<svg width="59" height="48" viewBox="0 0 59 48" fill="none" xmlns="http://www.w3.org/2000/svg">
<path d="M47.1273 20.0727C47.1273 21.7597 45.7597 23.1273 44.0727 23.1273C42.3857 23.1273 41.0182 21.7597 41.0182 20.0727C41.0182 18.3857 42.3857 17.0182 44.0727 17.0182C45.7597 17.0182 47.1273 18.3857 47.1273 20.0727Z" fill="#2E59F5"/>
<path d="M17.0182 20.0727C17.0182 21.7597 15.6506 23.1273 13.9636 23.1273C12.2767 23.1273 10.9091 21.7597 10.9091 20.0727C10.9091 18.3857 12.2767 17.0182 13.9636 17.0182C15.6506 17.0182 17.0182 18.3857 17.0182 20.0727Z" fill="#2E59F5"/>
<path fill-rule="evenodd" clip-rule="evenodd" d="M13.9636 34.0364C21.6755 34.0364 27.9273 27.7846 27.9273 20.0727C27.9273 12.3608 21.6755 6.10909 13.9636 6.10909C6.25173 6.10909 1.34839e-06 12.3608 0 20.0727C-1.34839e-06 27.7846 6.25173 34.0364 13.9636 34.0364ZM13.9636 27.9273C18.3016 27.9273 21.8182 24.4107 21.8182 20.0727C21.8182 15.7348 18.3016 12.2182 13.9636 12.2182C9.62569 12.2182 6.10909 15.7348 6.10909 20.0727C6.10909 24.4107 9.62569 27.9273 13.9636 27.9273Z" fill="white"/>
<path fill-rule="evenodd" clip-rule="evenodd" d="M51.9273 31.6195C49.6894 33.1447 46.9852 34.0364 44.0727 34.0364C36.3608 34.0364 30.1091 27.7846 30.1091 20.0727C30.1091 12.3608 36.3608 6.10909 44.0727 6.10909C51.7846 6.10909 58.0364 12.3608 58.0364 20.0727L58.0363 33.1636C58.0363 33.6456 57.6456 34.0364 57.1636 34.0364H52.8C52.318 34.0364 51.9273 33.6456 51.9273 33.1636V31.6195ZM51.9273 20.0727C51.9273 24.4107 48.4107 27.9273 44.0727 27.9273C39.7348 27.9273 36.2182 24.4107 36.2182 20.0727C36.2182 15.7348 39.7348 12.2182 44.0727 12.2182C48.4107 12.2182 51.9273 15.7348 51.9273 20.0727Z" fill="white"/>
<path d="M1.83692 40.5539C1.61814 40.1366 1.80794 39.6296 2.23476 39.43L6.12879 37.6087C6.56816 37.4032 7.08675 37.6035 7.32824 38.0241C8.69924 40.4122 11.224 41.965 14.0081 41.965C16.7922 41.965 19.317 40.4122 20.688 38.0241C20.9295 37.6034 21.4481 37.4031 21.8875 37.6086L25.7815 39.43C26.2083 39.6296 26.3981 40.1365 26.1794 40.5538C23.8563 44.9852 19.2772 48 14.0081 48C8.73905 48 4.15997 44.9853 1.83692 40.5539Z" fill="white"/>
<path d="M27.4909 3.05455C27.4909 4.74152 26.1233 6.10909 24.4364 6.10909C22.7494 6.10909 21.3818 4.74152 21.3818 3.05454C21.3818 1.36757 22.7494 -2.94961e-07 24.4364 0C26.1233 2.94961e-07 27.4909 1.36757 27.4909 3.05455Z" fill="#9BFFC8"/>
</svg>
