<?xml version="1.0" encoding="UTF-8"?>
<svg version="1.1" xmlns="http://www.w3.org/2000/svg" width="500" height="500">
<path d="M0 0 C2.17749664 1.15358726 2.17749664 1.15358726 5.25 2.296875 C9.58671067 4.1383816 13.16209421 6.80001237 16.88671875 9.65234375 C17.58998291 10.18794922 18.29324707 10.72355469 19.01782227 11.27539062 C37.56131127 25.60843949 49.78108548 44.56808428 56.01171875 67.02734375 C56.19645752 67.65624512 56.38119629 68.28514648 56.5715332 68.93310547 C58.50934861 76.31501168 58.45361818 83.81409769 58.44921875 91.40234375 C58.44962158 92.11254669 58.45002441 92.82274963 58.45043945 93.55447388 C58.38865602 112.47698151 53.6362003 127.31339811 45.01171875 144.02734375 C44.35171875 144.02734375 43.69171875 144.02734375 43.01171875 144.02734375 C42.90730469 144.589375 42.80289063 145.15140625 42.6953125 145.73046875 C41.8855864 148.45114846 40.64968537 150.41992182 39.07421875 152.77734375 C38.54957031 153.5765625 38.02492188 154.37578125 37.484375 155.19921875 C36.99839844 155.8025 36.51242187 156.40578125 36.01171875 157.02734375 C35.35171875 157.02734375 34.69171875 157.02734375 34.01171875 157.02734375 C34.01171875 157.68734375 34.01171875 158.34734375 34.01171875 159.02734375 C33.35171875 159.02734375 32.69171875 159.02734375 32.01171875 159.02734375 C32.01171875 159.68734375 32.01171875 160.34734375 32.01171875 161.02734375 C31.35171875 161.02734375 30.69171875 161.02734375 30.01171875 161.02734375 C30.01171875 161.68734375 30.01171875 162.34734375 30.01171875 163.02734375 C29.35171875 163.02734375 28.69171875 163.02734375 28.01171875 163.02734375 C27.78226563 163.59839844 27.5528125 164.16945312 27.31640625 164.7578125 C22.47250018 173.18388863 11.33531548 178.60173151 3.01171875 183.02734375 C2.44712448 183.33592819 1.88253021 183.64451263 1.30082703 183.96244812 C-3.81527848 186.65986529 -8.90194881 188.3307202 -14.48828125 189.77734375 C-15.31070313 189.99777344 -16.133125 190.21820313 -16.98046875 190.4453125 C-18.98103195 190.98034684 -20.98437788 191.50495868 -22.98828125 192.02734375 C-24.1471583 212.29166697 -25.1810341 232.5436433 -25.64624023 252.8371582 C-25.80734613 259.68322325 -26.05403749 266.51094496 -26.44921875 273.34765625 C-27.26986077 287.8359686 -27.57598688 302.34965584 -27.98406982 316.85418701 C-28.09644127 320.83057355 -28.21143035 324.8068844 -28.32617188 328.78320312 C-28.54937681 336.53117989 -28.76977012 344.27923304 -28.98828125 352.02734375 C-27.84552734 352.23423828 -27.84552734 352.23423828 -26.6796875 352.4453125 C-21.46458942 353.57310584 -17.37198622 355.89170435 -13.98828125 360.02734375 C-12.98828125 361.90234375 -12.98828125 361.90234375 -12.98828125 364.02734375 C-15.71025328 369.70798104 -19.28096392 371.96278374 -24.98828125 374.02734375 C-38.00707693 378.0684514 -53.44515808 377.35745649 -65.73828125 371.33984375 C-66.48078125 370.90671875 -67.22328125 370.47359375 -67.98828125 370.02734375 C-67.98828125 369.36734375 -67.98828125 368.70734375 -67.98828125 368.02734375 C-68.64828125 368.02734375 -69.30828125 368.02734375 -69.98828125 368.02734375 C-71.35780798 365.2882903 -71.11449486 363.05647043 -70.98828125 360.02734375 C-70.65828125 359.36734375 -70.32828125 358.70734375 -69.98828125 358.02734375 C-69.32828125 358.02734375 -68.66828125 358.02734375 -67.98828125 358.02734375 C-67.98828125 357.36734375 -67.98828125 356.70734375 -67.98828125 356.02734375 C-63.03828125 354.04734375 -63.03828125 354.04734375 -57.98828125 352.02734375 C-57.81058198 326.35967085 -58.13693146 300.67967101 -59.61303711 275.04858398 C-60.15427833 265.01399292 -60.31304153 254.96333451 -60.54977417 244.91799927 C-60.79107684 234.7334412 -61.09271845 224.56698393 -61.68139648 214.39550781 C-62.11243553 206.60683501 -62.07918823 198.82514242 -61.98828125 191.02734375 C-63.22578125 190.94484375 -64.46328125 190.86234375 -65.73828125 190.77734375 C-84.44752835 188.59168404 -103.41575522 176.7281734 -115.98828125 163.02734375 C-115.98828125 162.36734375 -115.98828125 161.70734375 -115.98828125 161.02734375 C-116.560625 160.80433594 -117.13296875 160.58132812 -117.72265625 160.3515625 C-130.71517429 152.75765971 -138.2044784 130.66663309 -141.98828125 117.02734375 C-142.26647705 116.08725464 -142.26647705 116.08725464 -142.55029297 115.12817383 C-144.51360283 107.69088985 -144.38602481 100.10228351 -144.36328125 92.46484375 C-144.36240509 91.75013916 -144.36152893 91.03543457 -144.36062622 90.29907227 C-144.31766213 79.69868544 -143.83542843 70.02315723 -139.98828125 60.02734375 C-139.6022876 59.02429199 -139.6022876 59.02429199 -139.20849609 58.00097656 C-132.09735543 39.89610409 -121.14336547 22.43093261 -104.98828125 11.02734375 C-104.32828125 11.02734375 -103.66828125 11.02734375 -102.98828125 11.02734375 C-102.98828125 10.36734375 -102.98828125 9.70734375 -102.98828125 9.02734375 C-73.89154107 -11.85838452 -32.02849095 -17.39542749 0 0 Z " fill="#E03B3B" transform="translate(292.98828125,66.97265625)"/>
<path d="M0 0 C24.14134973 7.17242999 43.30397589 25.42327605 55.25 47.3125 C59.08136771 54.58376348 61.80349024 62.08234853 64 70 C64.18473877 70.62890137 64.36947754 71.25780273 64.55981445 71.90576172 C66.49762986 79.28766793 66.44189943 86.78675394 66.4375 94.375 C66.43790283 95.08520294 66.43830566 95.79540588 66.4387207 96.52713013 C66.37693727 115.44963776 61.62448155 130.28605436 53 147 C52.34 147 51.68 147 51 147 C50.89558594 147.56203125 50.79117188 148.1240625 50.68359375 148.703125 C49.87386765 151.42380471 48.63796662 153.39257807 47.0625 155.75 C46.53785156 156.54921875 46.01320313 157.3484375 45.47265625 158.171875 C44.98667969 158.77515625 44.50070312 159.3784375 44 160 C43.34 160 42.68 160 42 160 C42 160.66 42 161.32 42 162 C41.34 162 40.68 162 40 162 C40 162.66 40 163.32 40 164 C39.34 164 38.68 164 38 164 C38 164.66 38 165.32 38 166 C37.34 166 36.68 166 36 166 C35.77054688 166.57105469 35.54109375 167.14210937 35.3046875 167.73046875 C30.46078143 176.15654488 19.32359673 181.57438776 11 186 C10.43540573 186.30858444 9.87081146 186.61716888 9.28910828 186.93510437 C4.17300277 189.63252154 -0.91366756 191.30337645 -6.5 192.75 C-7.32242188 192.97042969 -8.14484375 193.19085938 -8.9921875 193.41796875 C-10.9927507 193.95300309 -12.99609663 194.47761493 -15 195 C-16.15887705 215.26432322 -17.19275285 235.51629955 -17.65795898 255.80981445 C-17.81906488 262.6558795 -18.06575624 269.48360121 -18.4609375 276.3203125 C-19.28157952 290.80862485 -19.58770563 305.32231209 -19.99578857 319.82684326 C-20.10816002 323.8032298 -20.2231491 327.77954065 -20.33789062 331.75585938 C-20.56109556 339.50383614 -20.78148887 347.25188929 -21 355 C-19.85724609 355.20689453 -19.85724609 355.20689453 -18.69140625 355.41796875 C-13.47630817 356.54576209 -9.38370497 358.8643606 -6 363 C-5 364.875 -5 364.875 -5 367 C-7.72197203 372.68063729 -11.29268267 374.93543999 -17 377 C-30.01879568 381.04110765 -45.45687683 380.33011274 -57.75 374.3125 C-58.4925 373.879375 -59.235 373.44625 -60 373 C-60 372.34 -60 371.68 -60 371 C-60.66 371 -61.32 371 -62 371 C-63.36952673 368.26094655 -63.12621361 366.02912668 -63 363 C-62.67 362.34 -62.34 361.68 -62 361 C-61.34 361 -60.68 361 -60 361 C-60 360.34 -60 359.68 -60 359 C-55.05 357.02 -55.05 357.02 -50 355 C-49.82230073 329.3323271 -50.14865021 303.65232726 -51.62475586 278.02124023 C-52.16599708 267.98664917 -52.32476028 257.93599076 -52.56149292 247.89065552 C-52.80279559 237.70609745 -53.1044372 227.53964018 -53.69311523 217.36816406 C-54.12415428 209.57949126 -54.09090698 201.79779867 -54 194 C-55.2375 193.9175 -56.475 193.835 -57.75 193.75 C-76.4592471 191.56434029 -95.42747397 179.70082965 -108 166 C-108 165.34 -108 164.68 -108 164 C-108.57234375 163.77699219 -109.1446875 163.55398437 -109.734375 163.32421875 C-116.81818531 159.18385376 -121.66869359 149.23641926 -125.5625 142.1875 C-125.90893555 141.57817627 -126.25537109 140.96885254 -126.61230469 140.34106445 C-128.87437168 136.07798273 -129.33700214 132.78543044 -129 128 C-127.62437146 129.28965176 -126.29233607 130.62689293 -125 132 C-125 132.66 -125 133.32 -125 134 C-124.34 134 -123.68 134 -123 134 C-121.66796875 135.57421875 -121.66796875 135.57421875 -120.1875 137.6875 C-117.68245856 141.12591024 -115.12582157 144.09225901 -112 147 C-111.39929688 147.59425781 -110.79859375 148.18851563 -110.1796875 148.80078125 C-93.87754577 164.29082367 -71.17551852 171.54636278 -48.96484375 171.28320312 C-33.52861472 170.87306177 -18.40749656 167.40243455 -4.8203125 159.91796875 C-3 159 -3 159 -1 159 C-1 158.34 -1 157.68 -1 157 C0.609375 155.8515625 0.609375 155.8515625 2.75 154.625 C5.96226788 152.71239527 8.39905964 150.70097653 11 148 C11.66 148 12.32 148 13 148 C13.226875 147.443125 13.45375 146.88625 13.6875 146.3125 C15.3592504 143.36703501 17.58281215 141.35675815 20 139 C20.66 138.01 21.32 137.02 22 136 C22.66 136 23.32 136 24 136 C24.38865234 134.92685547 24.38865234 134.92685547 24.78515625 133.83203125 C26.06492508 130.84864731 27.62667119 128.37843056 29.4375 125.6875 C33.96046798 118.64138872 36.04566802 112.08649705 38.125 104 C38.29604248 103.33524658 38.46708496 102.67049316 38.64331055 101.9855957 C43.0101804 84.27200343 42.77522732 62.67631778 34.76953125 45.9453125 C34 44 34 44 34 40 C33.34 40 32.68 40 32 40 C31.03810003 38.27281484 30.08063492 36.54315942 29.125 34.8125 C28.59132813 33.84957031 28.05765625 32.88664062 27.5078125 31.89453125 C26.1576322 29.30260482 25.02901671 26.73238902 24 24 C23.34 24 22.68 24 22 24 C20.703125 22.42578125 20.703125 22.42578125 19.25 20.3125 C17.2463527 17.50936781 15.39432832 15.35996549 12.625 13.3125 C10 11 10 11 9.625 8.1875 C9.810625 7.1046875 9.810625 7.1046875 10 6 C8.906875 5.731875 7.81375 5.46375 6.6875 5.1875 C1.9729207 3.66924565 1.9729207 3.66924565 0 1 C0 0.67 0 0.34 0 0 Z " fill="#BF3838" transform="translate(285,64)"/>
<path d="M0 0 C1.2684375 0.16242188 2.536875 0.32484375 3.84375 0.4921875 C9.07327089 1.0711994 14.2429945 1.14795636 19.5 1.125 C20.82837891 1.13080078 20.82837891 1.13080078 22.18359375 1.13671875 C27.86537555 1.12837546 33.36394133 0.72169044 39 0 C38.94465088 0.99813721 38.88930176 1.99627441 38.83227539 3.0246582 C37.75254505 22.63169359 36.79350521 42.22795615 36.34204102 61.8605957 C36.1781967 68.68910971 35.9331138 75.49731275 35.5390625 82.31640625 C34.71861157 96.80603279 34.41233101 111.32101007 34.00421143 125.82684326 C33.89183998 129.8032298 33.7768509 133.77954065 33.66210938 137.75585938 C33.43890444 145.50383614 33.21851113 153.25188929 33 161 C33.76183594 161.13792969 34.52367187 161.27585937 35.30859375 161.41796875 C40.52369183 162.54576209 44.61629503 164.8643606 48 169 C49 170.875 49 170.875 49 173 C46.27802797 178.68063729 42.70731733 180.93543999 37 183 C23.98120432 187.04110765 8.54312317 186.33011274 -3.75 180.3125 C-4.4925 179.879375 -5.235 179.44625 -6 179 C-6 178.34 -6 177.68 -6 177 C-6.66 177 -7.32 177 -8 177 C-9.36952673 174.26094655 -9.12621361 172.02912668 -9 169 C-8.505 168.01 -8.505 168.01 -8 167 C-7.34 167 -6.68 167 -6 167 C-6 166.34 -6 165.68 -6 165 C-1.05 163.02 -1.05 163.02 4 161 C4.17769927 135.3323271 3.85134979 109.65232726 2.37524414 84.02124023 C1.83400292 73.98664917 1.67523972 63.93599076 1.43850708 53.89065552 C1.19720441 43.70609745 0.8955628 33.53964018 0.30688477 23.36816406 C-0.12415428 15.57949126 -0.09090698 7.79779867 0 0 Z " fill="#C7C7C7" transform="translate(231,258)"/>
<path d="M0 0 C0.38818359 1.93945313 0.38818359 1.93945313 0.3984375 4.28125 C0.40230469 5.12300781 0.40617187 5.96476562 0.41015625 6.83203125 C0.39855469 7.71246094 0.38695312 8.59289062 0.375 9.5 C0.38660156 10.38042969 0.39820313 11.26085937 0.41015625 12.16796875 C0.40628906 13.00972656 0.40242188 13.85148437 0.3984375 14.71875 C0.39505371 15.49154297 0.39166992 16.26433594 0.38818359 17.06054688 C0 19 0 19 -3 21 C-4.87841797 21.4230957 -4.87841797 21.4230957 -6.9921875 21.67578125 C-7.77343994 21.77866455 -8.55469238 21.88154785 -9.35961914 21.98754883 C-10.18969482 22.09478271 -11.01977051 22.2020166 -11.875 22.3125 C-27.10028618 24.51508085 -40.15743244 30.03019218 -51.40625 40.6796875 C-53 42 -53 42 -55 42 C-55 42.66 -55 43.32 -55 44 C-55.66 44.639375 -56.32 45.27875 -57 45.9375 C-64.29153598 53.04418014 -69.10570146 61.65454919 -73.38598633 70.78051758 C-75.80952251 75.90476125 -75.80952251 75.90476125 -78 77 C-84.26440678 77.56949153 -84.26440678 77.56949153 -86.9375 75.5 C-89.62518536 69.17603444 -87.70548912 62.81699079 -85.4375 56.6875 C-85.1679248 55.9462085 -84.89834961 55.20491699 -84.62060547 54.44116211 C-82.19929108 48.05169825 -79.08025611 42.49231927 -75 37 C-74.07380859 35.74316406 -74.07380859 35.74316406 -73.12890625 34.4609375 C-58.60024153 15.57659664 -38.64235511 1.65403458 -14.625 -1.75 C-3.75 -2.5 -3.75 -2.5 0 0 Z " fill="#F46B5A" transform="translate(251,72)"/>
<path d="M0 0 C-0.05534912 0.96784424 -0.11069824 1.93568848 -0.16772461 2.93286133 C-1.26908201 22.33439024 -2.18361862 41.72128742 -2.67553711 61.14819336 C-2.8561423 68.23060032 -3.06770611 75.30260564 -3.5 82.375 C-3.95319817 89.80328258 -4.14759457 97.2326905 -4.32299805 104.67163086 C-4.49488689 111.94650999 -4.70458408 119.2202215 -4.92504883 126.49377441 C-4.97528747 128.17365974 -5.02393598 129.85359333 -5.07104492 131.53356934 C-5.2111566 136.508012 -5.38087819 141.47978966 -5.59329224 146.45169067 C-5.65543653 148.009002 -5.70779766 149.56673864 -5.74972534 151.12472534 C-6.15371427 165.66142617 -6.15371427 165.66142617 -11.44067383 171.72143555 C-14.76025045 174.44331167 -18.60311569 174.38617245 -22.703125 174.359375 C-26.61126422 173.74789743 -28.34638193 171.85774254 -31 169 C-31 168.34 -31 167.68 -31 167 C-30.40832031 166.90203125 -29.81664062 166.8040625 -29.20703125 166.703125 C-24.15165852 165.74648024 -20.75233265 164.75233265 -17 161 C-15.53700138 158.07400276 -15.75748998 155.40150593 -15.64282227 152.13427734 C-15.60347156 151.06746845 -15.60347156 151.06746845 -15.56332588 149.97910786 C-15.47661807 147.59818661 -15.39652612 145.21708885 -15.31640625 142.8359375 C-15.25640876 141.15182584 -15.19600121 139.46772875 -15.13520813 137.78364563 C-15.00627774 134.18758953 -14.88026121 130.59144748 -14.75653076 126.99520874 C-14.56320717 121.37660152 -14.36335759 115.75823829 -14.16259766 110.13989258 C-13.7689221 99.09347439 -13.38331407 88.04678204 -13 77 C-12.97240852 76.20495308 -12.94481705 75.40990616 -12.91638947 74.59076691 C-12.81352099 71.62620816 -12.71066441 68.66164901 -12.6079092 65.69708633 C-12.40578378 59.86752686 -12.20167345 54.03803766 -11.99728394 48.20855713 C-11.87792658 44.77176817 -11.76211362 41.33487351 -11.64672852 37.89794922 C-11.30435049 27.90993279 -10.93050984 17.95403841 -10 8 C-10.84594727 8.00785522 -10.84594727 8.00785522 -11.70898438 8.01586914 C-14.30597789 8.03687267 -16.90295344 8.04973362 -19.5 8.0625 C-20.386875 8.07087891 -21.27375 8.07925781 -22.1875 8.08789062 C-27.55823086 8.10763596 -32.68633663 7.78835893 -38 7 C-38 4.69 -38 2.38 -38 0 C-37.15816162 0.00523682 -36.31632324 0.01047363 -35.44897461 0.01586914 C-32.29744727 0.03300762 -29.14594386 0.04549696 -25.99438477 0.05493164 C-24.63565281 0.05993113 -23.27692615 0.06673291 -21.91821289 0.07543945 C-19.95461415 0.08769842 -17.99097459 0.09273487 -16.02734375 0.09765625 C-14.25991821 0.10551147 -14.25991821 0.10551147 -12.45678711 0.11352539 C-8.9277613 0.06389727 -8.9277613 0.06389727 -5.18579102 -0.56860352 C-2 -1 -2 -1 0 0 Z " fill="#B1B0B0" transform="translate(270,259)"/>
<path d="M0 0 C0.33 0 0.66 0 1 0 C1.01981934 0.79172607 1.03963867 1.58345215 1.06005859 2.39916992 C1.1554716 5.9956076 1.26508591 9.59147751 1.375 13.1875 C1.4059375 14.43337891 1.436875 15.67925781 1.46875 16.96289062 C1.50742188 18.16494141 1.54609375 19.36699219 1.5859375 20.60546875 C1.6173584 21.71043701 1.6487793 22.81540527 1.68115234 23.95385742 C2.13427144 28.28277549 3.16555151 31.06440623 6.0625 34.3125 C10.11388814 36.63989319 13.42980578 36.68137441 18 36 C22.27614089 34.23376789 24.00296487 32.11577323 26 28 C26.48340979 25.23386114 26.59981255 22.49099301 26.6875 19.6875 C26.72166016 18.94693359 26.75582031 18.20636719 26.79101562 17.44335938 C26.87293554 15.62941836 26.93815822 13.81473647 27 12 C27.33 12 27.66 12 28 12 C28 15.63 28 19.26 28 23 C29.65 23.33 31.3 23.66 33 24 C37.76734418 26.0431475 41.50530925 28.19745483 44 32.875 C44 36.53689618 42.33292181 38.26877446 40 41 C29.85457859 48.18342482 15.36187854 48.39523916 3.58203125 46.4296875 C-1.6278311 45.20003055 -6.37057545 43.70049765 -11 41 C-11 40.34 -11 39.68 -11 39 C-11.66 39 -12.32 39 -13 39 C-14.36952673 36.26094655 -14.12621361 34.02912668 -14 31 C-13.67 30.34 -13.34 29.68 -13 29 C-12.34 29 -11.68 29 -11 29 C-11 28.34 -11 27.68 -11 27 C-7.7 25.68 -4.4 24.36 -1 23 C-0.67 15.41 -0.34 7.82 0 0 Z " fill="#E0E0E0" transform="translate(236,396)"/>
<path d="M0 0 C2.5 0.25 2.5 0.25 4.5 2.25 C4.81884766 4.89086914 4.81884766 4.89086914 4.9140625 8.28515625 C4.95289551 9.55480225 4.99172852 10.82444824 5.03173828 12.13256836 C5.06343081 13.52586527 5.0945029 14.91917641 5.125 16.3125 C5.16233506 17.73641641 5.19993643 19.16032587 5.23779297 20.58422852 C5.50448437 31.28382505 5.60219722 41.98485352 5.625 52.6875 C5.62767883 53.41599152 5.63035767 54.14448303 5.63311768 54.89505005 C5.63888116 56.94961751 5.63730385 59.00402602 5.6328125 61.05859375 C5.63168457 62.23220459 5.63055664 63.40581543 5.62939453 64.61499023 C5.5 67.25 5.5 67.25 4.5 68.25 C0.77775401 68.54386153 -0.27786243 68.39809171 -3.5 66.25 C-3.83990428 63.31503883 -3.98925213 60.58241005 -4.01171875 57.640625 C-4.02980591 56.76956116 -4.04789307 55.89849731 -4.06652832 55.0010376 C-4.12151377 52.16739952 -4.15514932 49.33397959 -4.1875 46.5 C-4.21883876 44.57224963 -4.2511459 42.64451475 -4.28442383 40.71679688 C-4.36097303 36.0504879 -4.41921858 31.3841744 -4.47070312 26.7175293 C-4.49672629 24.52572792 -4.52913449 22.33421228 -4.56640625 20.14257812 C-4.61879145 17.01168941 -4.65807993 13.8811757 -4.6875 10.75 C-4.70063232 9.88149414 -4.71376465 9.01298828 -4.72729492 8.11816406 C-4.72995348 6.16064441 -4.62748736 4.20336562 -4.5 2.25 C-2.5 0.25 -2.5 0.25 0 0 Z " fill="#D6D4D5" transform="translate(244.5,341.75)"/>
<path d="M0 0 C0.33 0.99 0.66 1.98 1 3 C0.67 3.66 0.34 4.32 0 5 C-0.66 5 -1.32 5 -2 5 C-2 5.99 -2 6.98 -2 8 C-1.34 8 -0.68 8 0 8 C0.33 7.34 0.66 6.68 1 6 C1 6.66 1 7.32 1 8 C5.455 7.505 5.455 7.505 10 7 C8.24281469 10.51437061 6.80180426 12.49824895 4.1875 15.3125 C1.62136823 18.12546477 -0.73204175 20.91522998 -2.875 24.0625 C-3.926875 25.5165625 -3.926875 25.5165625 -5 27 C-5.66 27 -6.32 27 -7 27 C-7 26.01 -7 25.02 -7 24 C-7.66 24 -8.32 24 -9 24 C-9.33 23.34 -9.66 22.68 -10 22 C-11.32 22 -12.64 22 -14 22 C-14.66 22 -15.32 22 -16 22 C-14.62102783 16.60650529 -12.17025336 13.3718105 -8.5625 9.3125 C-8.07201172 8.74466797 -7.58152344 8.17683594 -7.07617188 7.59179688 C-4.80177799 4.97363495 -2.5035409 2.40170195 0 0 Z " fill="#DE413F" transform="translate(179,86)"/>
<path d="M0 0 C-2.38809332 1.50361431 -3.60325891 2.04492602 -6.44921875 1.72265625 C-8.06604941 1.2645955 -9.67475449 0.77585608 -11.26953125 0.24609375 C-25.84300297 -4.3878673 -47.93600263 -4.66277631 -62.07421875 1.3671875 C-65.40077346 2.46029473 -68.52976007 2.18590571 -72 2 C-56.51848199 -13.48151801 -18.30628113 -6.20477317 0 0 Z " fill="#D77273" transform="translate(285,63)"/>
<path d="M0 0 C1.07069003 3.59147974 0.74569085 6.42893243 0.27539062 10.13671875 C-0.25913491 15.69426794 -0.22488637 21.27744387 -0.24023438 26.85644531 C-0.24998101 28.9958324 -0.28111382 31.13427286 -0.3125 33.2734375 C-0.38079429 42.10958878 0.01336223 49.52004334 5 57 C4.96856707 59.73990408 4.44521663 62.28417854 4 65 C-4.53640875 56.46359125 -3.4983756 38.81664678 -3.5 27.5625 C-3.50412903 26.88185486 -3.50825806 26.20120972 -3.51251221 25.49993896 C-3.53694697 16.57910408 -2.6237992 8.53637423 0 0 Z " fill="#CF6E6E" transform="translate(152,131)"/>
<path d="M0 0 C0.66 0.33 1.32 0.66 2 1 C2.33 1.99 2.66 2.98 3 4 C3.721875 3.938125 4.44375 3.87625 5.1875 3.8125 C8.55798641 4.03719909 10.20869578 5.16361564 13 7 C13.99 7.33 14.98 7.66 16 8 C16.33 8.66 16.66 9.32 17 10 C18.97888961 10.72693904 20.97954558 11.39816251 23 12 C23 12.66 23 13.32 23 14 C26.63 14 30.26 14 34 14 C34 14.66 34 15.32 34 16 C37.3 16 40.6 16 44 16 C44 16.66 44 17.32 44 18 C27.85782406 18.96853056 12.50441207 12.26967014 -1 4 C-1.33 3.34 -1.66 2.68 -2 2 C-1.34 2 -0.68 2 0 2 C0 1.34 0 0.68 0 0 Z " fill="#BC5E5F" transform="translate(196,241)"/>
<path d="M0 0 C9.32374734 2.77009885 17.78854271 6.35786828 25 13 C24.34 13.66 23.68 14.32 23 15 C22.67 14.01 22.34 13.02 22 12 C17.82900941 11.89085953 17.82900941 11.89085953 13.75 12.625 C13.1725 12.74875 12.595 12.8725 12 13 C10 11 10 11 9.875 8.375 C9.91625 7.59125 9.9575 6.8075 10 6 C8.906875 5.731875 7.81375 5.46375 6.6875 5.1875 C1.9729207 3.66924565 1.9729207 3.66924565 0 1 C0 0.67 0 0.34 0 0 Z " fill="#BE5253" transform="translate(285,64)"/>
<path d="M0 0 C-0.33 1.32 -0.66 2.64 -1 4 C-2.98 4.33 -4.96 4.66 -7 5 C-7.061875 5.61875 -7.12375 6.2375 -7.1875 6.875 C-7.455625 7.57625 -7.72375 8.2775 -8 9 C-9.66666667 9.66666667 -11.33333333 10.33333333 -13 11 C-13.88693303 13.04105639 -13.88693303 13.04105639 -14 15 C-16.64 15 -19.28 15 -22 15 C-17.375 10.125 -17.375 10.125 -14 9 C-14 8.34 -14 7.68 -14 7 C-11.4453125 5.2734375 -11.4453125 5.2734375 -8.125 3.375 C-7.03445312 2.74335937 -5.94390625 2.11171875 -4.8203125 1.4609375 C-2 0 -2 0 0 0 Z " fill="#D56063" transform="translate(204,69)"/>
<path d="M0 0 C1.37562854 1.28965176 2.70766393 2.62689293 4 4 C4 4.66 4 5.32 4 6 C4.66 6 5.32 6 6 6 C6.69937202 7.4317616 7.38412718 8.87067032 8.0625 10.3125 C8.44535156 11.11300781 8.82820312 11.91351563 9.22265625 12.73828125 C10 15 10 15 9 18 C7.171875 17.7890625 7.171875 17.7890625 5 17 C1.16900845 11.7374274 -0.7010377 6.44954686 0 0 Z " fill="#BC3F41" transform="translate(156,192)"/>
<path d="M0 0 C0.70703125 1.671875 0.70703125 1.671875 1 4 C-0.36328125 6.578125 -0.36328125 6.578125 -2.3125 9.25 C-2.94800781 10.14203125 -3.58351563 11.0340625 -4.23828125 11.953125 C-4.81964844 12.62859375 -5.40101563 13.3040625 -6 14 C-6.66 14 -7.32 14 -8 14 C-8 14.66 -8 15.32 -8 16 C-8.66 16 -9.32 16 -10 16 C-10 16.66 -10 17.32 -10 18 C-10.66 18 -11.32 18 -12 18 C-12.33 18.66 -12.66 19.32 -13 20 C-13 18.35 -13 16.7 -13 15 C-12.01 15 -11.02 15 -10 15 C-10.33 13.68 -10.66 12.36 -11 11 C-10.01 11 -9.02 11 -8 11 C-8 9.68 -8 8.36 -8 7 C-6.68 6.67 -5.36 6.34 -4 6 C-3.67 4.68 -3.34 3.36 -3 2 C-2.01 2.33 -1.02 2.66 0 3 C0 2.01 0 1.02 0 0 Z " fill="#BB4F51" transform="translate(335,210)"/>
<path d="M0 0 C3.32993248 3.06154986 4.82224881 6.64824666 6.5625 10.75 C6.86607422 11.4409375 7.16964844 12.131875 7.48242188 12.84375 C12.30438928 24.02146966 12.30438928 24.02146966 11.625 28.4375 C11.41875 28.953125 11.2125 29.46875 11 30 C11 29.01 11 28.02 11 27 C10.34 27 9.68 27 9 27 C9 24.69 9 22.38 9 20 C8.01 19.67 7.02 19.34 6 19 C4.19733731 15.58442859 3.781066 12.83134499 4 9 C3.34 9 2.68 9 2 9 C2 7.35 2 5.7 2 4 C1.34 4 0.68 4 0 4 C0 2.68 0 1.36 0 0 Z " fill="#BE6C6F" transform="translate(337,108)"/>
<path d="M0 0 C-6.74840759 4.49893839 -13.93597877 6.60860538 -22 6 C-16.87944065 0.87944065 -7.06109361 -0.65684592 0 0 Z " fill="#D57778" transform="translate(235,59)"/>
<path d="M0 0 C2.64 0 5.28 0 8 0 C8 0.66 8 1.32 8 2 C11.3 2 14.6 2 18 2 C18 2.66 18 3.32 18 4 C11.71739294 4.23268915 6.11980533 3.40454548 0 2 C0 1.34 0 0.68 0 0 Z " fill="#B25254" transform="translate(222,255)"/>
<path d="M0 0 C0.33 0.66 0.66 1.32 1 2 C2.97888961 2.72693904 4.97954558 3.39816251 7 4 C7 4.66 7 5.32 7 6 C7.99 6.33 8.98 6.66 10 7 C5.13911367 6.39238921 0.35659024 5.2960408 -4 3 C-4.66 2.01 -5.32 1.02 -6 0 C-3 -1 -3 -1 0 0 Z " fill="#BE6668" transform="translate(212,249)"/>
<path d="M0 0 C3.15628514 0.32423055 6.05762133 0.78444286 9 2 C10.73456566 4.31810781 11.20969869 6.1549153 12 9 C7.09198451 7.51272258 3.59508707 4.55364515 0 1 C0 0.67 0 0.34 0 0 Z " fill="#BE6567" transform="translate(182,234)"/>
<path d="M0 0 C2.475 0.495 2.475 0.495 5 1 C5 1.66 5 2.32 5 3 C6.670625 3.4640625 6.670625 3.4640625 8.375 3.9375 C12 5 12 5 14 6 C14 7.32 14 8.64 14 10 C10.22272911 8.18690997 6.62730178 6.0926741 3 4 C3 3.01 3 2.02 3 1 C2.01 0.67 1.02 0.34 0 0 Z " fill="#BE3636" transform="translate(281,64)"/>
<path d="M0 0 C5.9129304 0.64270983 11.34244531 2.19003784 17 4 C13.48975328 5.94516856 11.90331877 6.10093606 8 5 C7.01 4.67 6.02 4.34 5 4 C5 3.34 5 2.68 5 2 C3.35 1.67 1.7 1.34 0 1 C0 0.67 0 0.34 0 0 Z " fill="#D57A7B" transform="translate(268,59)"/>
<path d="M0 0 C2.76363533 2.49618675 4.63219364 4.19933432 5 8 C4.67 8.99 4.34 9.98 4 11 C3.01 10.67 2.02 10.34 1 10 C-0.60725635 6.78548731 -0.05748185 3.56387464 0 0 Z " fill="#BC5151" transform="translate(332,100)"/>
<path d="M0 0 C0.66 0 1.32 0 2 0 C2.33 1.65 2.66 3.3 3 5 C3.66 5 4.32 5 5 5 C4.67 3.68 4.34 2.36 4 1 C6.0625 2.75 6.0625 2.75 8 5 C7.75 7.25 7.75 7.25 7 9 C5.1875 8.875 5.1875 8.875 3 8 C0 2.96428571 0 2.96428571 0 0 Z " fill="#BD5456" transform="translate(158,201)"/>
<path d="M0 0 C0.68359375 1.734375 0.68359375 1.734375 1 4 C-0.21484375 6.140625 -0.21484375 6.140625 -1.9375 8.25 C-2.50339844 8.95640625 -3.06929688 9.6628125 -3.65234375 10.390625 C-4.31943359 11.18726563 -4.31943359 11.18726563 -5 12 C-5.33 10.68 -5.66 9.36 -6 8 C-5.34 8 -4.68 8 -4 8 C-4 6.35 -4 4.7 -4 3 C-3.34 2.67 -2.68 2.34 -2 2 C-1.34 2.33 -0.68 2.66 0 3 C0 2.01 0 1.02 0 0 Z " fill="#BD6164" transform="translate(335,210)"/>
<path d="M0 0 C0.66 0 1.32 0 2 0 C3 3 3 3 2 6 C-0.64 6 -3.28 6 -6 6 C-4 4 -2 2 0 0 Z " fill="#D55757" transform="translate(188,78)"/>
<path d="M0 0 C0.99 0 1.98 0 3 0 C1.50829734 4.9723422 -0.60457417 9.41845739 -3 14 C-3.33 14 -3.66 14 -4 14 C-4 12.02 -4 10.04 -4 8 C-3.34 8 -2.68 8 -2 8 C-2 7.01 -2 6.02 -2 5 C-1.34 5 -0.68 5 0 5 C0 3.35 0 1.7 0 0 Z " fill="#BD6B6E" transform="translate(341,197)"/>
<path d="M0 0 C2.66666667 2.66666667 5.33333333 5.33333333 8 8 C7.67 8.66 7.34 9.32 7 10 C6.01 10 5.02 10 4 10 C3.67 8.35 3.34 6.7 3 5 C2.01 4.67 1.02 4.34 0 4 C0 2.68 0 1.36 0 0 Z " fill="#BC6465" transform="translate(324,90)"/>
<path d="M0 0 C4.72065967 1.54269924 9.41664092 3.07794619 14 5 C14 5.33 14 5.66 14 6 C8.76779612 6.38284419 5.55706506 5.41256386 1 3 C0.67 2.01 0.34 1.02 0 0 Z " fill="#B85E5E" transform="translate(285,64)"/>
<path d="M0 0 C-0.33 1.32 -0.66 2.64 -1 4 C-3.64 4.33 -6.28 4.66 -9 5 C-6.45523312 2.20075644 -3.92372883 0 0 0 Z " fill="#D77276" transform="translate(204,69)"/>
<path d="M0 0 C-1.45255699 3.82946843 -3.42895561 5.12050295 -7 7 C-7 6.01 -7 5.02 -7 4 C-6.34 4 -5.68 4 -5 4 C-5 3.01 -5 2.02 -5 1 C-2 0 -2 0 0 0 Z " fill="#BD686C" transform="translate(314,236)"/>
<path d="M0 0 C0.33 0 0.66 0 1 0 C1 2.31 1 4.62 1 7 C1.66 7 2.32 7 3 7 C3.33 9.64 3.66 12.28 4 15 C3 13 2 11 1 9 C0.34 9 -0.32 9 -1 9 C-0.67 6.03 -0.34 3.06 0 0 Z " fill="#AD383A" transform="translate(345,128)"/>
<path d="M0 0 C0.66 0 1.32 0 2 0 C2 1.98 2 3.96 2 6 C1.01 6 0.02 6 -1 6 C-1.33 6.99 -1.66 7.98 -2 9 C-1.125 2.25 -1.125 2.25 0 0 Z " fill="#D96E70" transform="translate(155,122)"/>
<path d="M0 0 C0.33 0.99 0.66 1.98 1 3 C0.67 3.66 0.34 4.32 0 5 C-0.66 5 -1.32 5 -2 5 C-2 5.99 -2 6.98 -2 8 C-2.66 7.67 -3.32 7.34 -4 7 C-4 4 -4 4 -2 1.8125 C-1.34 1.214375 -0.68 0.61625 0 0 Z " fill="#D56264" transform="translate(179,86)"/>
<path d="M0 0 C1.32 0.33 2.64 0.66 4 1 C4.12375 1.61875 4.2475 2.2375 4.375 2.875 C4.87197356 5.19120832 4.87197356 5.19120832 7 7 C6.01 7 5.02 7 4 7 C2.02 3.535 2.02 3.535 0 0 Z " fill="#C37072" transform="translate(165,214)"/>
<path d="M0 0 C0.33 1.32 0.66 2.64 1 4 C0.34 4 -0.32 4 -1 4 C-1 4.99 -1 5.98 -1 7 C-2.32 7.33 -3.64 7.66 -5 8 C-3.62845496 5.04590299 -2.01136276 2.55991624 0 0 Z " fill="#D67979" transform="translate(173,92)"/>
<path d="M0 0 C3.0916909 2.52956528 3.90931332 5.22454612 5 9 C4.01 9 3.02 9 2 9 C2 7.35 2 5.7 2 4 C1.34 4 0.68 4 0 4 C0 2.68 0 1.36 0 0 Z " fill="#B55F61" transform="translate(337,108)"/>
</svg>
